<svg width="141" height="20" viewBox="0 0 141 20" fill="none" xmlns="http://www.w3.org/2000/svg">
<path fill-rule="evenodd" clip-rule="evenodd" d="M76.5148 3.50437V15.5401C78.0583 15.5401 79.5455 15.7257 80.9708 15.5014C83.8907 15.0432 85.8593 12.4825 85.8056 9.52375C85.7493 6.43944 83.8739 4.20006 80.8162 3.74402C79.4622 3.54212 78.0742 3.58294 76.5148 3.50437ZM73.3975 18.2469V0.698785C77.3248 0.937558 81.3114 -0.0724013 84.9518 2.25345C87.9533 4.17153 89.3825 7.67457 88.6683 11.5358C88.0714 14.7618 85.039 17.9036 81.7881 18.196C79.0276 18.4444 76.2284 18.2469 73.3975 18.2469Z" fill="black"/>
<mask id="mask0" mask-type="alpha" maskUnits="userSpaceOnUse" x="51" y="0" width="19" height="19">
<path fill-rule="evenodd" clip-rule="evenodd" d="M51.5889 0.796875H69.5149V19H51.5889V0.796875Z" fill="white"/>
</mask>
<g mask="url(#mask0)">
<path fill-rule="evenodd" clip-rule="evenodd" d="M54.6344 9.72032C54.5297 13.2001 57.0565 16.0687 60.3461 16.2022C63.5953 16.3352 66.3183 13.6167 66.4488 10.1107C66.5772 6.67111 63.9885 3.74012 60.7324 3.63717C57.4519 3.53335 54.7383 6.23969 54.6344 9.72032ZM51.5947 9.76002C51.7818 4.71072 55.9423 0.622858 60.7105 0.802583C65.6608 0.989723 69.7637 5.25251 69.5032 10.0758C69.2027 15.6434 65.1697 19.066 60.3938 18.9993C55.383 18.9286 51.4161 14.5929 51.5947 9.76002Z" fill="black"/>
</g>
<path fill-rule="evenodd" clip-rule="evenodd" d="M104.301 15.5116V18.3213H92.0684V0.678467H104.3V3.38978H95.1807V7.98873H100.963V10.7747H95.1435V15.5116H104.301Z" fill="black"/>
<path fill-rule="evenodd" clip-rule="evenodd" d="M129.135 9.22312C131.526 6.59653 134.335 3.51412 136.917 0.678467H132.907L125.309 8.64986V0.6903H122.329V18.3117H125.367V9.47469C125.367 9.47469 130.83 15.1026 133.669 18.3213H137.781C134.988 15.3796 131.524 11.7445 129.135 9.22312Z" fill="black"/>
<mask id="mask1" mask-type="alpha" maskUnits="userSpaceOnUse" x="0" y="0" width="18" height="19">
<path fill-rule="evenodd" clip-rule="evenodd" d="M0 0.121338H17.7426V18.2256H0V0.121338Z" fill="white"/>
</mask>
<g mask="url(#mask1)">
<path fill-rule="evenodd" clip-rule="evenodd" d="M6.01444 11.0615L8.7806 3.89689L11.6511 11.0615H6.01444ZM10.2945 0.121338L7.44825 0.153512L0 18.2256H3.24829L4.91771 13.9013H12.789L14.5217 18.2256H17.7427L10.2945 0.121338Z" fill="black"/>
</g>
<path fill-rule="evenodd" clip-rule="evenodd" d="M37.3423 3.39285H42.887V18.3213H45.7532V3.42432H50.3317L51.5067 0.678467H37.3423V3.39285Z" fill="black"/>
<path fill-rule="evenodd" clip-rule="evenodd" d="M113.046 8.26587C109.071 7.08837 109.53 5.30793 109.739 4.80689C109.947 4.30629 110.618 3.42338 113.162 3.42338C115.707 3.42338 117.488 4.52071 117.488 4.52071L118.598 2.15949C118.529 2.03987 116.493 0.752058 113.116 0.680291C109.739 0.608967 106.754 2.6366 106.754 5.45102C106.754 8.26587 108.384 9.60242 111.589 10.5797C115.22 11.6868 116.331 12.6547 116.331 14.0622C116.331 15.4696 115.587 16.4951 112.949 16.4951C110.696 16.4951 107.972 14.6341 107.298 14.098L106.233 16.4788C107.106 17.0839 110.315 18.9999 113.139 18.9999C116.331 18.9999 119.015 17.3541 119.107 13.943C119.2 10.5318 116.661 9.33662 113.046 8.26587Z" fill="black"/>
<mask id="mask2" mask-type="alpha" maskUnits="userSpaceOnUse" x="19" y="0" width="16" height="19">
<path fill-rule="evenodd" clip-rule="evenodd" d="M19.3999 0.796631H34.4614V18.6665H19.3999V0.796631Z" fill="white"/>
</mask>
<g mask="url(#mask2)">
<path fill-rule="evenodd" clip-rule="evenodd" d="M31.2542 11.273C31.2542 13.6997 29.3184 15.6671 26.9306 15.6671C24.5424 15.6671 22.6071 13.6997 22.6071 11.273V0.796631H19.3999V11.0134C19.3999 15.2405 22.7715 18.6666 26.9306 18.6666C31.0894 18.6666 34.4614 15.2405 34.4614 11.0134V0.796631H31.2542V11.273Z" fill="black"/>
</g>
<path fill-rule="evenodd" clip-rule="evenodd" d="M139.894 17.2544H139.997C140.118 17.2544 140.215 17.2112 140.215 17.1066C140.215 17.0135 140.152 16.952 140.014 16.952C139.957 16.952 139.917 16.9584 139.894 16.9643V17.2544ZM139.888 17.8284H139.67V16.8161C139.756 16.7978 139.877 16.7854 140.032 16.7854C140.209 16.7854 140.289 16.8161 140.358 16.8597C140.41 16.9028 140.45 16.9827 140.45 17.0814C140.45 17.1928 140.37 17.2791 140.255 17.3159V17.3287C140.347 17.3654 140.398 17.4397 140.427 17.5751C140.456 17.7289 140.473 17.7909 140.496 17.8284H140.261C140.232 17.7909 140.215 17.6986 140.186 17.5811C140.169 17.4701 140.112 17.4209 139.991 17.4209H139.888V17.8284ZM139.309 17.2975C139.309 17.7477 139.619 18.1056 140.043 18.1056C140.456 18.1056 140.759 17.7477 140.759 17.3039C140.759 16.8533 140.456 16.4894 140.037 16.4894C139.619 16.4894 139.309 16.8533 139.309 17.2975ZM141 17.2975C141 17.8712 140.582 18.3214 140.037 18.3214C139.499 18.3214 139.068 17.8712 139.068 17.2975C139.068 16.7363 139.499 16.2856 140.037 16.2856C140.582 16.2856 141 16.7363 141 17.2975Z" fill="black"/>
</svg>
