<svg xmlns="http://www.w3.org/2000/svg" viewBox="0 0 388.72 89.18"><title>layer1</title><g id="Layer_2" data-name="Layer 2"><g id="svg38963"><g id="layer1"><g id="g38999"><path id="path38910" d="M93.89,72.3c.3.38.83-.08.6-.45l-34.65-60h0L53.32.53a1.17,1.17,0,0,0-1-.53.89.89,0,0,0-.82.68l-9.45,31.5a7.68,7.68,0,0,0,7.35,9.89h9.45A19.06,19.06,0,0,1,73.19,48.6Z"/><path id="path38912" d="M35.54,34.2,42.89,9.68a.37.37,0,0,0-.67-.3L.14,82.2a.85.85,0,0,0,.15,1.12,1,1,0,0,0,1.13.23l.15-.08L38.92,69.75a7.62,7.62,0,0,0,4-11l-5.62-9.6A19.18,19.18,0,0,1,35.54,34.2"/><path id="path38914" d="M87.74,89.1H98.92a1,1,0,0,0,.9-.6,1,1,0,0,0-.15-1L71.54,55.28a7.68,7.68,0,0,0-12.45,1.2l-5.32,9.3a19.28,19.28,0,0,1-9.9,8.32L4.79,88.43a.39.39,0,0,0,.15.75Z"/><path id="path38916" d="M283.94,74.78a30.23,30.23,0,1,1,30.23-30.23,30.28,30.28,0,0,1-30.23,30.23m0-65.4a35.14,35.14,0,1,0,35.18,35.17A35.22,35.22,0,0,0,283.94,9.38"/><path id="path38918" d="M217.34,47.55a2,2,0,0,1,1.58.83l20,29.55h5.92L223,45.6a2.16,2.16,0,0,1,0-2.32L244.79,11h-5.92l-20,29.55a1.86,1.86,0,0,1-1.58.83,1.93,1.93,0,0,1-1.57-.83L195.82,11h-5.93l21.75,32.32a2.18,2.18,0,0,1,0,2.33L189.89,78h5.93l20-29.55a1.84,1.84,0,0,1,1.57-.9"/><path id="path38920" d="M388.72,78V11h-4.88V70.58L340.27,12.83a5.52,5.52,0,0,0-4.95-2,5.6,5.6,0,0,0-4.88,5.62V78.07h4.88V16.57a.74.74,0,0,1,1.35-.45L383.39,78Z"/><path id="path38922" d="M150.74,17.55a1.39,1.39,0,0,1,1.28.83L178.49,78h5.33L155.47,14.25a5.22,5.22,0,0,0-4.8-3.22,5.09,5.09,0,0,0-4.73,3.15L117.59,78h5.33l8.17-18.37h34.8a.93.93,0,0,0,.83-.53l1.65-3.67H133l16.5-37a1.3,1.3,0,0,1,1.27-.83Z"/></g></g></g></g></svg>