<svg width="83" height="57" viewBox="0 0 83 57" fill="none" xmlns="http://www.w3.org/2000/svg">
<path fill-rule="evenodd" clip-rule="evenodd" d="M80.4907 32.7034C81.8331 28.439 80.0242 24.294 76.6695 20.6309C76.3643 20.2924 76.0227 19.918 75.6528 19.5156C75.5685 19.8311 75.4761 20.1499 75.3679 20.4744C74.9109 21.9747 74.5832 23.3914 74.6094 24.6227C74.6845 28.3344 76.4595 31.5292 78.3496 34.7791C78.563 35.1447 78.7655 35.5138 78.9624 35.8851C79.0295 35.7485 79.0965 35.6133 79.1655 35.4796C79.5577 34.6641 80.2362 33.5065 80.4907 32.7034Z" fill="white"/>
<path fill-rule="evenodd" clip-rule="evenodd" d="M80.4907 32.7034C81.8331 28.439 80.0242 24.294 76.6695 20.6309C76.3643 20.2924 76.0227 19.918 75.6528 19.5156C75.5685 19.8311 75.4761 20.1499 75.3679 20.4744C74.9109 21.9747 74.5832 23.3914 74.6094 24.6227C74.6845 28.3344 76.4595 31.5292 78.3496 34.7791C78.563 35.1447 78.7655 35.5138 78.9624 35.8851C79.0295 35.7485 79.0965 35.6133 79.1655 35.4796C79.5577 34.6641 80.2362 33.5065 80.4907 32.7034Z" stroke="white" stroke-width="2.91245"/>
<path fill-rule="evenodd" clip-rule="evenodd" d="M38.6747 48.7236C33.627 47.8958 25.9818 47.2152 19.7622 45.817C18.4546 45.52 17.2262 45.1807 16.1118 44.7878C17.2634 45.8961 18.6159 47.1521 19.3917 47.7303C23.503 50.7847 28.4533 53.4204 35 54.3001C42.8505 55.3601 52.5261 55.3433 59.6149 52.9229C60.0962 52.7578 60.5688 52.5836 61.0275 52.3957C60.2889 52.35 59.5462 52.2942 58.7963 52.2216C51.2994 51.4956 43.4792 49.5121 38.6747 48.7236Z" fill="white"/>
<path fill-rule="evenodd" clip-rule="evenodd" d="M38.6747 48.7236C33.627 47.8958 25.9818 47.2152 19.7622 45.817C18.4546 45.52 17.2262 45.1807 16.1118 44.7878C17.2634 45.8961 18.6159 47.1521 19.3917 47.7303C23.503 50.7847 28.4533 53.4204 35 54.3001C42.8505 55.3601 52.5261 55.3433 59.6149 52.9229C60.0962 52.7578 60.5688 52.5836 61.0275 52.3957C60.2889 52.35 59.5462 52.2942 58.7963 52.2216C51.2994 51.4956 43.4792 49.5121 38.6747 48.7236Z" stroke="white" stroke-width="2.91245"/>
<path fill-rule="evenodd" clip-rule="evenodd" d="M69.8198 13.4848C71.9776 15.515 74.0772 17.787 75.6525 19.5158C76.7056 15.5863 76.1869 12.2843 74.0177 9.36816C71.1389 5.50813 65.0381 4.62985 59.6475 5.61161C59.5924 5.62591 59.5009 5.64161 59.3799 5.66882C59.7504 5.87437 60.1129 6.08973 60.4661 6.31211C63.4854 8.12168 66.9767 10.8154 69.8198 13.4848Z" fill="white"/>
<path fill-rule="evenodd" clip-rule="evenodd" d="M69.8198 13.4848C71.9776 15.515 74.0772 17.787 75.6525 19.5158C76.7056 15.5863 76.1869 12.2843 74.0177 9.36816C71.1389 5.50813 65.0381 4.62985 59.6475 5.61161C59.5924 5.62591 59.5009 5.64161 59.3799 5.66882C59.7504 5.87437 60.1129 6.08973 60.4661 6.31211C63.4854 8.12168 66.9767 10.8154 69.8198 13.4848Z" stroke="white" stroke-width="2.91245"/>
<path fill-rule="evenodd" clip-rule="evenodd" d="M62.615 51.6434C62.1146 51.9305 61.5819 52.1726 61.0264 52.3958C61.9924 52.4572 62.946 52.4939 63.8818 52.4984C72.2232 52.5461 79.3268 50.2634 80.4117 42.0563C80.5761 40.7891 80.4117 39.5813 80.0426 38.4083C79.775 37.5513 79.3958 36.7145 78.9619 35.885C78.4428 36.9018 77.8222 37.9257 77.1229 38.9346C73.5573 44.0462 68.044 48.5383 62.615 51.6434Z" fill="white"/>
<path fill-rule="evenodd" clip-rule="evenodd" d="M62.615 51.6434C62.1146 51.9305 61.5819 52.1726 61.0264 52.3958C61.9924 52.4572 62.946 52.4939 63.8818 52.4984C72.2232 52.5461 79.3268 50.2634 80.4117 42.0563C80.5761 40.7891 80.4117 39.5813 80.0426 38.4083C79.775 37.5513 79.3958 36.7145 78.9619 35.885C78.4428 36.9018 77.8222 37.9257 77.1229 38.9346C73.5573 44.0462 68.044 48.5383 62.615 51.6434Z" stroke="white" stroke-width="2.91245"/>
<path fill-rule="evenodd" clip-rule="evenodd" d="M14.4018 43.0925C8.46983 36.9728 7.07147 29.6507 9.31546 23.008C9.60337 22.1659 9.94579 21.3714 10.3469 20.6121C9.5074 21.1165 8.69654 21.6572 7.92406 22.2391C0.219057 28.0343 -0.082756 34.7474 8.92742 41.2055C10.6877 42.4727 13.5717 43.9009 15.9264 44.7226C15.986 44.7422 16.0513 44.7658 16.1114 44.7879C15.4035 44.1031 14.7723 43.4739 14.4018 43.0925Z" fill="white"/>
<path fill-rule="evenodd" clip-rule="evenodd" d="M14.4018 43.0925C8.46983 36.9728 7.07147 29.6507 9.31546 23.008C9.60337 22.1659 9.94579 21.3714 10.3469 20.6121C9.5074 21.1165 8.69654 21.6572 7.92406 22.2391C0.219057 28.0343 -0.082756 34.7474 8.92742 41.2055C10.6877 42.4727 13.5717 43.9009 15.9264 44.7226C15.986 44.7422 16.0513 44.7658 16.1114 44.7879C15.4035 44.1031 14.7723 43.4738 14.4018 43.0925Z" stroke="white" stroke-width="2.91245"/>
<path fill-rule="evenodd" clip-rule="evenodd" d="M37.5903 11.3752C47.1262 8.56902 56.5901 6.29086 57.0198 6.19327C57.33 6.11952 58.7311 5.80404 59.3798 5.6686C56.609 4.10244 53.358 2.95018 49.3604 2.39129C39.7069 1.05451 32.5015 4.51634 24.812 8.62174C18.4737 12.0107 13.1025 15.3732 10.3467 20.6124C12.4444 19.3423 14.7162 18.2975 17.0108 17.406C20.4267 16.0807 32.9251 12.7498 37.5903 11.3752Z" fill="white"/>
<path fill-rule="evenodd" clip-rule="evenodd" d="M37.5903 11.3752C47.1262 8.56902 56.5901 6.29086 57.0198 6.19327C57.33 6.11952 58.7311 5.80404 59.3798 5.6686C56.609 4.10244 53.358 2.95018 49.3604 2.39129C39.7069 1.05451 32.5015 4.51634 24.812 8.62174C18.4737 12.0107 13.1025 15.3732 10.3467 20.6124C12.4444 19.3423 14.7162 18.2975 17.0108 17.406C20.4267 16.0807 32.9251 12.7498 37.5903 11.3752Z" stroke="white" stroke-width="2.91245"/>
<path fill-rule="evenodd" clip-rule="evenodd" d="M80.4907 32.7034C81.8331 28.439 80.0242 24.294 76.6695 20.6309C76.3643 20.2924 76.0227 19.918 75.6528 19.5156C75.5685 19.8311 75.4761 20.1499 75.3679 20.4744C74.9109 21.9747 74.5832 23.3914 74.6094 24.6227C74.6845 28.3344 76.4595 31.5292 78.3496 34.7791C78.563 35.1447 78.7655 35.5138 78.9624 35.8851C79.0295 35.7485 79.0965 35.6133 79.1655 35.4796C79.5577 34.6641 80.2362 33.5065 80.4907 32.7034Z" fill="#D2D2D2"/>
<path fill-rule="evenodd" clip-rule="evenodd" d="M38.6747 48.7236C33.627 47.8958 25.9818 47.2152 19.7622 45.817C18.4546 45.52 17.2262 45.1807 16.1118 44.7878C17.2634 45.8961 18.6159 47.1521 19.3917 47.7303C23.503 50.7847 28.4533 53.4204 35 54.3001C42.8505 55.3601 52.5261 55.3433 59.6149 52.9229C60.0962 52.7578 60.5688 52.5836 61.0275 52.3957C60.2889 52.35 59.5462 52.2942 58.7963 52.2216C51.2994 51.4956 43.4792 49.5121 38.6747 48.7236Z" fill="#D2D2D2"/>
<path fill-rule="evenodd" clip-rule="evenodd" d="M69.8198 13.4848C71.9776 15.515 74.0772 17.787 75.6525 19.5158C76.7056 15.5863 76.1869 12.2843 74.0177 9.36816C71.1389 5.50813 65.0381 4.62985 59.6475 5.61161C59.5924 5.62591 59.5009 5.64161 59.3799 5.66882C59.7504 5.87437 60.1129 6.08973 60.4661 6.31211C63.4854 8.12168 66.9767 10.8154 69.8198 13.4848Z" fill="#A2A2A2"/>
<path fill-rule="evenodd" clip-rule="evenodd" d="M62.615 51.6434C62.1146 51.9305 61.5819 52.1726 61.0264 52.3958C61.9924 52.4572 62.946 52.4939 63.8818 52.4984C72.2232 52.5461 79.3268 50.2634 80.4117 42.0563C80.5761 40.7891 80.4117 39.5813 80.0426 38.4083C79.775 37.5513 79.3958 36.7145 78.9619 35.885C78.4428 36.9018 77.8222 37.9257 77.1229 38.9346C73.5573 44.0462 68.044 48.5383 62.615 51.6434Z" fill="#A2A2A2"/>
<path fill-rule="evenodd" clip-rule="evenodd" d="M14.4018 43.0925C8.46983 36.9728 7.07147 29.6507 9.31546 23.008C9.60337 22.1659 9.94579 21.3714 10.3469 20.6121C9.5074 21.1165 8.69654 21.6572 7.92406 22.2391C0.219057 28.0343 -0.082756 34.7474 8.92742 41.2055C10.6877 42.4727 13.5717 43.9009 15.9264 44.7226C15.986 44.7422 16.0513 44.7658 16.1114 44.7879C15.4035 44.1031 14.7723 43.4739 14.4018 43.0925Z" fill="#A2A2A2"/>
<path fill-rule="evenodd" clip-rule="evenodd" d="M37.5903 11.3752C47.1262 8.56902 56.5901 6.29086 57.0198 6.19327C57.33 6.11952 58.7311 5.80404 59.3798 5.6686C56.609 4.10244 53.358 2.95018 49.3604 2.39129C39.7069 1.05451 32.5015 4.51634 24.812 8.62174C18.4737 12.0107 13.1025 15.3732 10.3467 20.6124C12.4444 19.3423 14.7162 18.2975 17.0108 17.406C20.4267 16.0807 32.9251 12.7498 37.5903 11.3752Z" fill="#D2D2D2"/>
<path fill-rule="evenodd" clip-rule="evenodd" d="M78.3499 34.7793C76.4597 31.5292 74.6847 28.3346 74.6099 24.6221C74.5837 23.3908 74.9117 21.9738 75.3682 20.4746C75.4755 20.1502 75.5687 19.8311 75.6527 19.5156C74.078 17.7868 71.9778 15.5151 69.8201 13.4848C66.9769 10.8155 63.4853 8.12171 60.4661 6.31214C60.1131 6.08976 59.7506 5.8744 59.3801 5.66772C58.7314 5.80401 57.3303 6.11949 57.0199 6.19352C56.5901 6.29111 47.1265 8.56898 37.5903 11.3755C32.9254 12.7498 20.427 16.0801 17.0111 17.4062C14.7165 18.2977 12.4444 19.3417 10.3467 20.6126C9.94587 21.3711 9.60316 22.1656 9.31554 23.0074C7.07127 29.6501 8.4699 36.9722 14.4016 43.0919C14.7729 43.4733 15.4041 44.1025 16.112 44.7879C17.2264 45.1802 18.4539 45.5195 19.7625 45.8162C25.982 47.2158 33.6272 47.895 38.6749 48.7239C43.4797 49.5122 51.299 51.4956 58.7957 52.2216C59.5465 52.294 60.2892 52.3501 61.0269 52.3958C61.5821 52.1726 62.1148 51.9308 62.6155 51.6437C68.044 48.5383 73.5573 44.0465 77.1234 38.9346C77.8224 37.9248 78.4433 36.901 78.9629 35.8839C78.7657 35.514 78.5638 35.145 78.3499 34.7793Z" fill="black"/>
<path fill-rule="evenodd" clip-rule="evenodd" d="M19.6741 21.6784H20.4568C21.3603 21.6784 22.2268 21.7678 22.2268 22.7162C22.2268 23.583 21.3133 23.8062 20.431 23.8062H19.6741V21.6784ZM16.9819 30.0367H21.2452C23.0549 30.0367 25.1824 29.5173 25.1824 27.0544C25.1824 25.7995 24.4883 25.0595 23.1414 24.7827V24.751C24.2694 24.366 24.9225 23.6453 24.9225 22.3438C24.9225 20.571 23.5164 19.7317 21.6357 19.7317H16.9819V30.0367ZM19.6741 25.6685H20.5024C21.4307 25.6685 22.4866 25.7686 22.4866 26.8901C22.4866 27.9422 21.4605 28.088 20.4735 28.088H19.6741V25.6685Z" fill="white"/>
<path fill-rule="evenodd" clip-rule="evenodd" d="M24.7886 29.7864H27.5537L28.3602 27.5897H32.1857L32.9473 29.7864H35.9296L31.9974 19.4951H28.6627L24.7886 29.7864ZM31.5437 25.6453H28.9845L30.3037 21.6201H30.3309L31.5437 25.6453Z" fill="white"/>
<path fill-rule="evenodd" clip-rule="evenodd" d="M36.9424 19.4951H40.3085L43.6594 26.4843H43.685L43.6458 19.4951H46.0578V29.7864H42.7796L39.3108 22.7524H39.286L39.3663 29.7864H36.9424V19.4951Z" fill="white"/>
<path fill-rule="evenodd" clip-rule="evenodd" d="M47.5771 29.7864H51.2437C54.676 29.7864 57.1989 28.4433 57.1989 24.5983C57.1989 20.6136 54.7485 19.4951 51.2437 19.4951H47.5771V29.7864ZM50.2615 21.5291H51.3018C53.2617 21.5291 54.4293 22.5901 54.4293 24.6403C54.4293 26.6916 53.3049 27.7561 51.3018 27.7561H50.2615V21.5291Z" fill="white"/>
<path fill-rule="evenodd" clip-rule="evenodd" d="M56.6924 29.7864H59.4562L60.2597 27.5897H64.0913L64.8493 29.7864H67.8334L63.9022 19.4951H60.5666L56.6924 29.7864ZM63.4514 25.6453H60.8884L62.2061 21.6201H62.2344L63.4514 25.6453Z" fill="white"/>
<path fill-rule="evenodd" clip-rule="evenodd" d="M67.8335 29.7864H70.3655V19.4951H67.8335V29.7864Z" fill="white"/>
<path fill-rule="evenodd" clip-rule="evenodd" d="M16.686 31.8447H20.2361L23.7725 38.8356H23.8084L23.76 31.8447H26.3078V42.136H22.8434L19.1883 35.1045H19.1598L19.2498 42.136H16.686V31.8447Z" fill="white"/>
<path fill-rule="evenodd" clip-rule="evenodd" d="M26.814 42.136H29.58L30.3798 39.9418H34.2092L34.968 42.136H37.955L34.0204 31.8447H30.6889L26.814 42.136ZM33.5695 37.9941H31.0115L32.3246 33.9669H32.3524L33.5695 37.9941Z" fill="white"/>
<path fill-rule="evenodd" clip-rule="evenodd" d="M38.4614 31.8447H42.7758L44.5564 38.6866H44.5843L46.468 31.8447H50.6153V42.136H47.9379L47.9815 34.2355H47.9511L45.7342 42.136H43.2164L41.1108 34.2355H41.0829L41.1379 42.136H38.4614V31.8447Z" fill="white"/>
<path fill-rule="evenodd" clip-rule="evenodd" d="M60.6683 42.0667C59.8889 42.2526 59.026 42.4759 57.6327 42.4759C54.9063 42.4759 51.7583 41.1036 51.7583 37.2506C51.7583 33.7093 54.2474 31.9377 57.616 31.9377C58.6577 31.9377 59.6664 32.1741 60.6475 32.4658L60.4286 34.6672C59.5515 34.1903 58.7006 33.9526 57.7668 33.9526C55.8324 33.9526 54.5717 35.3549 54.5717 37.2506C54.5717 39.2522 55.9893 40.4646 57.9832 40.4646C58.8761 40.4646 59.7843 40.2275 60.5315 39.9374L60.6683 42.0667Z" fill="white"/>
<path fill-rule="evenodd" clip-rule="evenodd" d="M61.083 37.2085C61.083 40.4469 62.8677 42.4754 66.2147 42.4754C69.5485 42.4754 71.3374 40.4469 71.3374 37.2085C71.3374 33.9427 69.5808 31.9375 66.2147 31.9375C62.8405 31.9375 61.083 33.9427 61.083 37.2085ZM63.8992 37.2085C63.8992 35.4405 64.5546 33.9521 66.2147 33.9521C67.8687 33.9521 68.5276 35.4405 68.5276 37.2085C68.5276 38.8845 67.8687 40.465 66.2147 40.465C64.5546 40.465 63.8992 38.8845 63.8992 37.2085Z" fill="white"/>
</svg>
