<svg xmlns="http://www.w3.org/2000/svg" viewBox="0 0 2500 1327.73"><title>Layer 1</title><g id="Layer_2" data-name="Layer 2"><g id="Layer_1-2" data-name="Layer 1"><path d="M1250,0C559.64,0,0,297.22,0,663.86s559.64,663.87,1250,663.87S2500,1030.5,2500,663.86,1940.36,0,1250,0Zm0,1269.41C591.85,1269.41,58.31,998.3,58.31,663.86S591.85,58.31,1250,58.31,2441.69,329.43,2441.69,663.86,1908.15,1269.41,1250,1269.41Z"/><path d="M2227.16,735.31h0a45.08,45.08,0,0,0-45,45.11,43.89,43.89,0,0,0,13.07,32.06,45,45,0,0,0,63.86,0,45.38,45.38,0,0,0,0-63.91A43.38,43.38,0,0,0,2227.16,735.31Zm14.34,73.62-.13-.55-.13-.64-.22-1.85v-4.5c0-6.61-1.83-11-5.47-13.09q-3.23-1.84-11.36-1.84h-8.06v22.47H2206V751.45h20.2c7.16,0,12.44.7,15.77,2.09q9,3.72,9,14.6,0,7.74-5.6,11.4a21.35,21.35,0,0,1-8.28,2.79c4.46.7,7.71,2.59,9.78,5.6a15.7,15.7,0,0,1,3.09,8.87V801c0,1.43.06,2.85.16,4.27a8.68,8.68,0,0,0,.5,3l.38.71Z"/><path d="M2241.19,769.11h0c0-4.15-1.29-6.9-3.86-8.33s-6.72-2.13-12.41-2.13h-8.76v20.6h9.26a28.17,28.17,0,0,0,9.78-1.27Q2241.19,775.67,2241.19,769.11Z"/><path d="M1250,106.87c-631.33,0-1143.13,249.37-1143.13,557s511.8,557,1143.13,557,1143.13-249.38,1143.13-557S1881.33,106.87,1250,106.87Zm175.5,240.62h172.34V706.67h163.32v125.6H1425.5Zm-443.44,0,348.89-.2V478.45l-170.21.2v64.42H1331v84.86H1160.74l-.06,78.74,170.27,0V832.07l-348.89.2Zm-519.4,0H752.53c120.28,0,168.1,63.76,168.1,125.34,0,50-31.89,98.55-87.68,108.7,71,16,89.37,76.58,89.26,123.93-.11,54.73-32.75,126.79-146.51,126.79h-313ZM797.33,1051.7H745.1V998.46H685.61v53.24H633.38V893h52.23v53.24H745.1V893h52.23ZM984.56,945.23H904v16.18h80.56v21.88H904v16.18h80.56v52.23H851.77V893H984.56Zm169,106.47H1037V893h52.23V999.47h64.35Zm215.78,0h-52.22V982.89l-33.52,68.81h-29.12L1221,982.89v68.81h-52.23V893H1221L1269,991.72,1317.12,893h52.22Zm179.53-106.47h-80.56v16.18h80.56v21.88h-80.56v16.18h80.56v52.23H1416.1V893h132.77Zm177.92,0h-52.21V1051.7h-52.23V945.23h-52.22V893h156.66ZM1829.9,1054h0c-21.68-.17-51-7.7-68.41-17.83l13.75-31.16a95.18,95.18,0,0,0,55.06,18.62c10.93,0,25.43-6.65,25.43-15s-15-10-22.87-11.35c-19.54-3-28.15-5.56-46.2-12.72-20.14-8.32-30.66-23.15-30.66-40.48,0-38.17,29.93-52.6,71.37-53.45,19.29-.4,51,7.71,68.42,17.83L1882,939.63A95.15,95.15,0,0,0,1827,921c-10.94,0-25.43,6.68-25.43,15s15,10,22.84,11.33c19.54,3,28.35,6.48,46.18,12.72,20.58,7.2,30.69,23.15,30.69,40.5C1901.28,1038.72,1872.62,1054.31,1829.9,1054Zm320.15-221.71H1814.42V347.49h172.31V706.67h163.32Zm114.25-14.74a52.3,52.3,0,0,1-74.13,0Q2175,802.22,2175,780.35a52.33,52.33,0,1,1,89.32,37.18Z"/><path d="M696,450.72H639.46v85.72h62.33c25.37,0,37.67-27.35,37.67-43.31S726.41,450.72,696,450.72Z"/><path d="M696,635.9H639.46v85.72h62.33c25.37,0,37.67-27.36,37.67-43.31S726.41,635.9,696,635.9Z"/></g></g></svg>