<svg width="107" height="57" viewBox="0 0 107 57" fill="none" xmlns="http://www.w3.org/2000/svg">
<path d="M53.4202 56.4898C82.9234 56.4898 106.84 43.8441 106.84 28.2449C106.84 12.6457 82.9234 0 53.4202 0C23.917 0 0 12.6457 0 28.2449C0 43.8441 23.917 56.4898 53.4202 56.4898Z" fill="black"/>
<path d="M53.4204 54.009C81.5473 54.009 104.349 42.474 104.349 28.245C104.349 14.0159 81.5473 2.48096 53.4204 2.48096C25.2935 2.48096 2.49219 14.0159 2.49219 28.245C2.49219 42.474 25.2935 54.009 53.4204 54.009Z" fill="white"/>
<path d="M53.4204 51.9428C80.4012 51.9428 102.273 41.3329 102.273 28.2449C102.273 15.1568 80.4012 4.54688 53.4204 4.54688C26.4396 4.54688 4.56738 15.1568 4.56738 28.2449C4.56738 41.3329 26.4396 51.9428 53.4204 51.9428Z" fill="black"/>
<path d="M32.1601 14.7844C37.3008 14.7844 39.3441 17.4971 39.3441 20.1172C39.3441 22.2449 37.9812 24.31 35.5972 24.7417C38.6317 25.421 39.4163 28 39.4117 30.0146C39.407 32.3432 38.0122 35.4091 33.1503 35.4091H19.7725V14.7844H32.1601Z" fill="white"/>
<path d="M27.3281 22.8233H29.9919C31.0759 22.8233 31.6016 21.66 31.6016 20.9806C31.6016 20.3023 31.044 19.1763 29.7441 19.1763H27.3281V22.8233H27.3281Z" fill="black"/>
<path fill-rule="evenodd" clip-rule="evenodd" d="M56.8798 20.3565V14.7761L41.9692 14.7845V35.4101L56.8798 35.4017V30.068L49.6028 30.0661L49.6057 26.7162H56.8798V23.1056H49.6057V20.3649L56.8798 20.3565ZM68.2856 30.0661V14.7845H60.9204V35.4101H75.265V30.0661H68.2856Z" fill="white"/>
<path d="M27.3281 30.7025H29.9919C31.0759 30.7025 31.6016 29.5382 31.6016 28.8598C31.6016 28.1814 31.044 27.0554 29.7441 27.0554H27.3281V30.7025H27.3281Z" fill="black"/>
<path d="M84.9052 14.7844V30.066H91.8846V35.41H77.541V14.7844H84.9052Z" fill="white"/>
<path fill-rule="evenodd" clip-rule="evenodd" d="M75.2794 44.0844C76.0237 44.5152 77.2767 44.8357 78.2031 44.8432C80.0287 44.8572 81.2535 44.1938 81.2526 42.5697C81.2526 41.8315 80.8208 41.1531 79.9414 40.8466C79.8774 40.8244 79.8162 40.8029 79.7571 40.7823C79.1128 40.5568 78.7327 40.4237 77.9675 40.3056C77.9362 40.3001 77.9021 40.2945 77.8661 40.2885C77.5186 40.2313 76.9914 40.1444 76.9914 39.8234C76.9914 39.4693 77.6108 39.1852 78.0783 39.1852C78.9261 39.1988 79.7485 39.4758 80.4304 39.9776L81.0189 38.6517C80.2755 38.2209 78.9192 37.8761 78.0952 37.8929C76.324 37.9294 75.0447 38.5433 75.0447 40.1673C75.0447 40.9046 75.4943 41.5353 76.355 41.8895C77.1265 42.1941 77.4945 42.3025 78.3298 42.4305C78.3627 42.4364 78.3985 42.4423 78.4364 42.4487C78.7842 42.5065 79.3069 42.5934 79.3069 42.9136C79.3069 43.2677 78.6874 43.5509 78.22 43.5509C77.3718 43.5375 76.5491 43.2605 75.8669 42.7585L75.2794 44.0844ZM31.843 37.9938V40.2589H29.3003V37.9938H27.0684V44.746H29.3003V42.481H31.843V44.746H34.075V37.9938H31.843ZM42.0765 40.2159V37.9938H36.4018V44.746H42.0765V42.5239H38.6337V41.8353H42.0765V40.9046H38.6337V40.2159H42.0765ZM44.3169 44.746V37.9938H46.5489V42.5239H49.299V44.746H44.3169ZM67.1014 37.9938H73.7964V40.2159H71.5653V44.746H69.3334V40.2159H67.1014V37.9938ZM66.1928 37.9938V40.2159H62.75V40.9046H66.1928V41.8353H62.75V42.5239H66.1928V44.746H60.519V37.9938H66.1928ZM56.2887 37.9938L54.2342 42.1941L52.1796 37.9938H49.9476V44.746H52.1796V41.8184L53.6119 44.746H54.8564L56.2887 41.8184V44.746H58.5207V37.9938H56.2887Z" fill="white"/>
<path fill-rule="evenodd" clip-rule="evenodd" d="M96.7672 31.6275C97.2037 32.0611 97.4224 32.5862 97.4224 33.2011C97.4317 33.7956 97.1947 34.3678 96.7672 34.783C96.3308 35.2204 95.8014 35.4381 95.1819 35.4381C94.5859 35.4485 94.0124 35.2111 93.5995 34.783C93.1658 34.3485 92.9499 33.8206 92.9499 33.2011C92.9411 32.609 93.1781 32.0397 93.6051 31.6275C94.0406 31.1948 94.5662 30.9781 95.1819 30.9781C95.7775 30.9685 96.3508 31.2034 96.7672 31.6275ZM96.5448 31.8489C96.1684 31.4724 95.7132 31.2846 95.1801 31.2846C94.6676 31.2774 94.1749 31.4817 93.8191 31.8489C93.4436 32.2227 93.2569 32.675 93.2569 33.2039C93.2476 33.7155 93.4495 34.2086 93.8153 34.5681C94.1898 34.9447 94.6451 35.1325 95.1801 35.1325C95.7151 35.1325 96.1703 34.9438 96.5448 34.5681C96.9193 34.1925 97.107 33.7374 97.107 33.2039C97.107 32.675 96.9193 32.2227 96.5448 31.8489ZM95.7798 32.7226C95.7798 32.9086 95.6944 33.0347 95.5236 33.1001C95.3886 33.1424 95.2472 33.1608 95.1059 33.1543H94.7098V32.2778H95.0843C95.3274 32.2778 95.5048 32.3078 95.6146 32.3685C95.7244 32.4292 95.7798 32.546 95.7798 32.7226ZM94.2762 34.4168V31.9714H95.1397C95.4457 31.9714 95.6709 32.0013 95.8136 32.0601C96.0689 32.1657 96.1966 32.3732 96.1966 32.6815C96.1966 32.9011 96.1168 33.0628 95.9572 33.1665C95.8487 33.2298 95.7282 33.2702 95.6034 33.2852C95.7939 33.3151 95.9328 33.3954 96.021 33.5234C96.1093 33.6515 96.1534 33.7776 96.1534 33.9009V34.0785C96.1534 34.139 96.1556 34.1994 96.1599 34.2598C96.1596 34.3031 96.1669 34.3461 96.1815 34.3868L96.1975 34.4168H95.793L95.7873 34.3934L95.7817 34.3663L95.7723 34.2878V34.0962C95.7723 33.815 95.6944 33.63 95.5386 33.5393C95.4466 33.487 95.2852 33.4608 95.0533 33.4608H94.7089V34.4168H94.2762Z" fill="white"/>
</svg>
