<?xml version="1.0" encoding="utf-8"?>
<!-- Generator: Adobe Illustrator 21.0.0, SVG Export Plug-In . SVG Version: 6.00 Build 0)  -->
<svg version="1.1" id="Layer_1" xmlns="http://www.w3.org/2000/svg" xmlns:xlink="http://www.w3.org/1999/xlink" x="0px" y="0px"
	 viewBox="0 0 792 612" style="enable-background:new 0 0 792 612;" xml:space="preserve">
<g>
	<path d="M695.9,185.2c1.4,0,2.6-1.2,2.6-2.6v-5.9c0,0,0-0.1,0-0.1c0-18.4,0-36.8,0-55.2c0,0,0-0.1,0-0.1v-5.9
		c0-1.4-1.2-2.6-2.6-2.6H504.5c-1.4,0-2.6,1.2-2.6,2.6v5.9c0,0,0,0.1,0,0.1c0,18.4,0,36.8,0,55.3c0,0,0,0.1,0,0.1v5.9
		c0,1.4,1.2,2.6,2.6,2.6c0,0,55.9,0,57.4,0c0,1.8,0,311.5,0,311.5c0,1.4,1.2,2.6,2.6,2.6h71.3c1.4,0,2.6-1.2,2.6-2.6
		c0,0,0-309.9,0-311.5C639.9,185.2,695.9,185.2,695.9,185.2z"/>
	<path d="M177.9,300.7c-0.4-0.3-0.7-0.6-1.1-1c0.5-0.4,0.8-0.6,1.1-0.9c23.5-16.8,36.9-39.6,39.1-68.4c1.9-25.1-3.3-49-16.3-70.7
		c-17.6-29.4-43.8-45.7-78.1-46.8c-27.6-0.9-97.2-0.4-97.2-0.4c-1.4,0-2.5,1.1-2.6,2.4c0,0,0,0,0,0c0,0,0,0.1,0,0.1c0,2,0,3.9,0,5.9
		c0,44.4,0,88.9,0,133.3c0.1,1.3,0.5,242.1,0.5,242.1c0,1.4,1.2,2.6,2.6,2.6h4.8c23.8,0.1,47.6,0.1,71.4,0.1
		c21.1,0,41.5-4.3,60.9-12.6c27.3-11.7,46.6-31.1,55.8-59.8c6.4-20,6-40.4,1.9-60.7C215.2,338.7,201.3,316.5,177.9,300.7z
		 M100.1,267.3c0-28.9,0-57.8,0-86.6c0-3.9,0.1-4,4.1-3.8c24.3,1.2,39.7,16.6,41.3,41.1c1,15.2-3.3,28.7-13,40.5
		c-8.3,10.1-19.4,13-32.4,12.3C100.1,269.5,100.1,268.4,100.1,267.3z M139.3,415.5c-7.3,12-18.3,18-32.2,18.9
		c-1.8,0.1-3.6,0.2-5.4,0.3c-0.5,0-0.9-0.3-1.5-0.5c0-34.3,0-68.5,0-103c5.9-0.7,11.5,0.2,17,2c12.2,4.1,21.2,12.2,26,24
		C151.4,377.1,150.7,396.8,139.3,415.5z"/>
	<path d="M783.5,448.4c-8.2-14-16.3-28-24.3-42c-1.2-2-2.5-2.7-4.8-2.7c-16.2,0.1-32.4,0.1-48.6,0c-2.7,0-4.1,1-5.4,3.2
		c-8,14-16,27.9-24.1,41.8c-1.2,2.1-1.1,3.7,0.1,5.8c8.2,14,16.3,28,24.2,42c1.2,2.1,2.7,2.9,5,2.9c8-0.1,16,0,24,0
		c8.2,0,16.4-0.1,24.6,0c2.4,0,3.8-0.8,5-2.9c8-14,16.1-28.1,24.3-42C784.9,452.3,784.8,450.6,783.5,448.4z M730,473.8
		c-12.2-0.1-22.5-10.4-22.3-22.4c0.1-12.2,10.4-22.4,22.4-22.3c12.3,0.1,22.2,10.1,22.1,22.4C752.2,463.9,742.2,473.9,730,473.8z"/>
	<path d="M740.4,137.9h4.1l6.2,10.6h5.1l-7.2-11.9c1.5-0.6,2.7-1.5,3.6-2.8c0.9-1.2,1.3-2.7,1.3-4.3c0-2.7-0.8-4.7-2.3-6
		c-1.6-1.3-4-2-7.3-2H736v26.8h4.5V137.9z M740.4,125.5h3.2c1.9,0,3.2,0.3,4.1,1c0.9,0.7,1.3,1.7,1.3,3.2c0,1.3-0.5,2.3-1.5,3.2
		c-1,0.8-2.3,1.2-3.9,1.2h-3.2V125.5z"/>
	<path d="M732.8,154.6c3.5,2.1,7.3,3.1,11.5,3.1c4.2,0,8-1,11.5-3.1c3.5-2.1,6.2-4.9,8.2-8.3c1.9-3.5,2.9-7.2,2.9-11.1
		c0-4-1-7.8-3-11.3c-2-3.5-4.8-6.3-8.3-8.3c-3.5-2-7.3-3-11.3-3c-4.1,0-7.8,1-11.3,3c-3.5,2-6.3,4.8-8.3,8.3c-2,3.5-3,7.3-3,11.3
		c0,4,1,7.7,2.9,11.2C726.6,149.7,729.3,152.5,732.8,154.6z M727.5,125.3c1.8-3,4.1-5.3,7.1-7.1c3-1.7,6.2-2.6,9.7-2.6
		c3.5,0,6.8,0.9,9.8,2.6c3,1.8,5.3,4.1,7.1,7.1c1.7,3,2.6,6.2,2.6,9.7c0,3.5-0.9,6.8-2.6,9.8c-1.8,3-4.1,5.3-7.1,7.1
		c-3,1.7-6.2,2.6-9.7,2.6c-3.4,0-6.7-0.9-9.7-2.6c-3-1.7-5.4-4.1-7.1-7.1c-1.7-3-2.6-6.3-2.6-9.7
		C724.8,131.6,725.7,128.3,727.5,125.3z"/>
	<path d="M326.3,112.8h-71c-1.4,0-2.6,1.2-2.6,2.6v381.3c0,1.4,1.2,2.6,2.6,2.6h71c1.4,0,2.6-1.2,2.6-2.6v-5.9c0,0,0,0,0,0
		c0-61.5,0-375.4,0-375.4C328.9,114,327.8,112.8,326.3,112.8z"/>
	<path d="M535,427c0,0-53.9,0-73.8,0c-4.8,0-4.3,0.5-4.3-4.4c0-100.4,0-200.8,0-301.3c0,0,0,0,0,0v-5.9c0-1.4-1.2-2.6-2.6-2.6h-71.2
		c-1.4,0-2.6,1.2-2.6,2.6c0,0,0,128.9,0,190.5c0,61.6,0,123.3,0,184.9c0,0,0,0,0,0v5.9c0,1.4,1.2,2.6,2.6,2.6H535
		c1.4,0,2.6-1.2,2.6-2.6v-67.2C537.6,428.1,536.5,427,535,427z"/>
</g>
</svg>
