<svg width="81" height="33" viewBox="0 0 81 33" fill="none" xmlns="http://www.w3.org/2000/svg">
<path fill-rule="evenodd" clip-rule="evenodd" d="M80.7482 10.353C80.7482 9.42867 80.0065 8.66784 79.0899 8.66784C78.1725 8.66784 77.4322 9.42867 77.4322 10.353C77.4322 11.2845 78.1739 12.0382 79.0899 12.0382C80.0079 12.0382 80.7482 11.2845 80.7482 10.353ZM79.0899 8.41187C80.1395 8.41187 81.0001 9.27935 81.0001 10.353C81.0001 11.4267 80.1395 12.2942 79.0899 12.2942C78.0333 12.2942 77.1733 11.4267 77.1733 10.353C77.1733 9.27935 78.0333 8.41187 79.0899 8.41187Z" fill="#0A0B09"/>
<path fill-rule="evenodd" clip-rule="evenodd" d="M79.2825 9.62178C79.2825 9.39531 79.0411 9.29178 78.6491 9.29178H78.2089V9.99707H78.6491C79.0586 9.99707 79.2825 9.87413 79.2825 9.62178ZM79.7236 11H79.3075C79.2833 10.9288 79.2733 10.8641 79.2733 10.7541C79.2733 10.34 79.1085 10.23 78.6491 10.23H78.2097V11H77.811V9.05884H78.6508C79.1843 9.05884 79.7244 9.14943 79.7244 9.62178C79.7244 9.95178 79.399 10.0618 79.1094 10.0941C79.4831 10.1588 79.677 10.3335 79.677 10.6765C79.6745 10.8124 79.6911 10.9482 79.7236 11Z" fill="#0A0B09"/>
<path fill-rule="evenodd" clip-rule="evenodd" d="M70.6929 16.1519L76.5356 25.2354H70.491L67.6907 20.2794L64.1431 25.2354H58.0396L64.7697 16.1295L59.6126 8.41187H65.7742L67.7637 11.9796L70.067 8.41187H76.2517L70.6929 16.1519Z" fill="#0A0B09"/>
<path fill-rule="evenodd" clip-rule="evenodd" d="M54.8517 26.5293C56.6111 26.5293 58.0396 27.9741 58.0396 29.7619C58.0396 31.549 56.6096 32.9999 54.8517 32.9999C53.0901 32.9999 51.6616 31.549 51.6616 29.7619C51.6609 27.9741 53.0908 26.5293 54.8517 26.5293Z" fill="#0A0B09"/>
<path fill-rule="evenodd" clip-rule="evenodd" d="M44.4818 14.0247C44.4818 13.4574 44.3327 13.0395 44.0323 12.7334C43.4329 12.1363 42.2791 12.0542 41.4183 12.0468V16.0101C43.5835 15.9877 44.4818 15.413 44.4818 14.0247ZM45.8603 18.5329L51.0238 25.2354H44.6399L41.4183 20.2122V25.2354H36.3545V8.41187H42.9916C44.962 8.41187 46.5578 8.96419 47.6059 10.0091C48.5424 10.9421 49.0152 12.2035 49.0152 13.7709C49.0152 16.0847 47.7932 17.8753 45.8603 18.5329Z" fill="#0A0B09"/>
<path fill-rule="evenodd" clip-rule="evenodd" d="M35.7164 8.41187V12.8081H31.8616V25.2354H26.8144V12.8081H22.9604V8.41187H35.7164Z" fill="#0A0B09"/>
<path fill-rule="evenodd" clip-rule="evenodd" d="M16.5825 25.2354H21.6849V8.41187H16.5825V25.2354Z" fill="#0A0B09"/>
<mask id="mask0" mask-type="alpha" maskUnits="userSpaceOnUse" x="0" y="0" width="23" height="26">
<path fill-rule="evenodd" clip-rule="evenodd" d="M0.0444336 0.554932H22.2266V25.9034H0.0444336V0.554932Z" fill="white"/>
</mask>
<g mask="url(#mask0)">
<path fill-rule="evenodd" clip-rule="evenodd" d="M19.0867 0.554932C20.8199 0.554932 22.2264 1.9951 22.2264 3.7612C22.2264 5.53488 20.8191 6.98263 19.0867 6.98263C17.3461 6.98263 15.9463 5.53488 15.9463 3.7612C15.9455 1.9951 17.3454 0.554932 19.0867 0.554932Z" fill="#0A0B09"/>
<path fill-rule="evenodd" clip-rule="evenodd" d="M15.0577 10.7649L12.421 15.1233C11.681 13.8651 10.2204 13.054 8.748 13.054C6.64303 13.054 5.10393 14.805 5.10393 16.9576C5.10393 19.1103 6.64303 20.8552 8.748 20.8552C10.2204 20.8552 11.681 20.0434 12.421 18.7851L15.0577 23.1511C13.4653 24.849 11.2285 25.9033 8.748 25.9033C3.91812 25.9033 0 21.902 0 16.9584C0 12.0163 3.91812 7.99902 8.748 7.99902C11.2285 7.99827 13.4653 9.05944 15.0577 10.7649Z" fill="#0A0B09"/>
</g>
<path fill-rule="evenodd" clip-rule="evenodd" d="M52.2993 25.2354H57.4017V8.41187H52.2993V25.2354Z" fill="#0A0B09"/>
</svg>
