<svg width="77" height="36" viewBox="0 0 77 36" fill="none" xmlns="http://www.w3.org/2000/svg">
<mask id="mask0" mask-type="alpha" maskUnits="userSpaceOnUse" x="0" y="0" width="77" height="36">
<path fill-rule="evenodd" clip-rule="evenodd" d="M0.000244141 0.00512695H76.67V35.9997H0.000244141V0.00512695Z" fill="white"/>
</mask>
<g mask="url(#mask0)">
<path fill-rule="evenodd" clip-rule="evenodd" d="M24.3102 0.00512695H17.7102C7.92024 0.00512695 0.000244141 8.05361 0.000244141 18.0024C0.000244141 27.9513 7.92024 35.9997 17.7102 35.9997H30.1402C33.2202 35.9997 35.7502 33.4287 35.7502 30.2987V19.3438L44.3302 33.0933C45.5402 34.8819 47.5202 35.9997 49.7202 35.9997C53.2402 35.9997 56.2102 33.0933 56.2102 29.4045V19.3438L64.7902 33.0933C65.9991 34.8819 67.9802 35.9997 70.1802 35.9997C73.6991 35.9997 76.6702 33.0933 76.6702 29.4045V0.116911H72.2702V29.2927C72.2702 30.4105 71.3902 31.4166 70.1802 31.4166C69.5202 31.4166 68.8602 31.0812 68.4202 30.5223L53.2402 6.04149C53.1302 5.81792 52.9102 5.70614 52.5802 5.70614C52.1402 5.70614 51.8102 6.04149 51.8102 6.48863V29.2927C51.8102 30.4105 50.9302 31.4166 49.7202 31.4166C49.0602 31.4166 48.3991 31.0812 47.9602 30.5223L32.7802 6.04149C32.6702 5.81792 32.4502 5.70614 32.1202 5.70614C31.6802 5.70614 31.3502 6.04149 31.3502 6.48863V30.0752C31.3502 30.7459 30.8002 31.3048 30.1402 31.3048H17.7102C10.3402 31.3048 4.51024 25.2684 4.51024 17.8906C4.51024 10.4011 10.4502 4.47651 17.7102 4.47651H24.3102V0.00512695Z" fill="black"/>
</g>
<path fill-rule="evenodd" clip-rule="evenodd" d="M25.2334 26.1183C25.5637 26.1183 25.894 25.7776 25.894 25.437V6.69992C25.894 3.06606 28.7565 0 32.3897 0C34.7017 0 36.6835 1.24914 37.7844 3.06606L46.372 16.9201V6.81347C46.372 3.17962 49.2345 0.113558 52.8677 0.113558C55.1797 0.113558 57.1614 1.36269 58.2624 3.17962L66.8499 17.0337V0.113558H71.2538V29.8657C71.2538 30.32 70.9235 30.6606 70.4831 30.6606C70.2629 30.6606 70.0427 30.5471 69.8225 30.32L54.5191 5.56434C54.1888 4.99655 53.5283 4.65587 52.7576 4.65587C51.6566 4.65587 50.6657 5.56434 50.6657 6.81347V29.9793C50.6657 30.4335 50.3355 30.7742 49.8951 30.7742C49.6749 30.7742 49.4547 30.6606 49.2345 30.4335L34.0412 5.56434C33.7109 4.99655 33.0503 4.65587 32.2796 4.65587C31.1786 4.65587 30.1878 5.56434 30.1878 6.81347V30.0928C30.1878 30.4335 29.8575 30.7742 29.5272 30.7742H17.7469C11.1411 30.7742 5.74634 25.2099 5.74634 18.3964C5.74634 11.5829 11.1411 6.01857 17.7469 6.01857H24.3527V10.5609H17.7469C13.5632 10.5609 10.1502 14.0812 10.1502 18.3964C10.1502 22.7116 13.5632 26.2319 17.7469 26.2319L25.2334 26.1183Z" fill="black"/>
</svg>
