<svg width="109" height="30" viewBox="0 0 109 30" fill="none" xmlns="http://www.w3.org/2000/svg">
<path fill-rule="evenodd" clip-rule="evenodd" d="M26.1132 10.7509C25.8004 10.0599 25.4876 9.63466 24.4451 9.95359C22.6727 10.5383 21.161 11.0167 19.5972 11.7077L19.4929 11.8672C19.5451 12.7177 19.6493 15.4813 20.0142 17.927L20.1706 18.0865C25.8004 18.0333 27.5728 14.2061 26.1132 10.7509ZM36.226 29.0898C33.6717 29.143 32.0036 28.9835 28.7196 29.143C28.4068 29.143 28.3025 29.143 28.3025 29.0898L28.1462 28.7703C27.8855 28.2925 27.6249 27.6014 27.26 26.8041C26.8951 26.0067 26.4781 25.0494 25.9047 24.1463C24.7057 22.2858 23.0376 20.319 20.4312 19.1496L20.1706 19.0433L20.2227 19.3622C20.4834 21.2227 20.5876 22.5516 20.744 23.5084C20.8483 24.4652 21.0047 25.1563 21.2653 25.6347C21.5259 26.1125 22.0993 26.5915 22.8813 27.123C23.4547 27.4951 24.1844 27.9204 24.9664 28.3988C25.3834 28.6114 25.227 28.824 24.9664 28.824C22.1515 28.7177 17.0951 28.7177 15.2706 28.7177C14.9057 28.7177 14.8536 28.5046 15.2706 28.2925C17.2515 27.3888 18.3983 26.3783 18.4504 25.6347C18.5025 24.8905 18.6068 21.3822 18.5546 18.7244C18.4504 13.6214 18.3461 11.7077 18.2419 11.442L18.0855 11.2825L17.877 11.0699L17.1472 10.3788C16.678 9.95359 16.1568 9.47519 15.6876 8.99678C15.3227 8.67785 15.5312 8.57153 15.6876 8.57153C17.4078 8.62469 23.1419 8.51838 26.6345 8.78416C27.4164 8.83731 27.8855 8.89047 28.1462 8.94363C28.3547 8.99678 28.4589 9.04994 28.5111 9.15625C29.3972 10.3257 30.3877 13.0366 29.5015 15.535C28.6153 18.0333 26.9993 18.618 23.4547 18.8838L22.8813 18.9365L23.3504 19.2022C23.9238 19.5217 24.5493 20.1064 25.227 20.7969C25.9047 21.4885 26.6345 22.2858 27.3642 23.0832C28.8238 24.6778 30.3877 26.3783 31.7951 27.123C33.3068 27.9204 34.7664 28.3988 36.1738 28.6646C36.7472 28.7703 36.7472 29.0898 36.226 29.0898Z" fill="black"/>
<path fill-rule="evenodd" clip-rule="evenodd" d="M69.1872 25.723C70.8053 27.5224 74.5093 27.6314 73.7267 22.506C73.1532 19.0164 69.2399 17.1625 67.8306 17.4897C67.4137 17.9804 68.4573 24.9597 69.1872 25.723ZM67.779 15.9084C67.779 15.963 67.779 16.0175 67.8306 16.1265C67.8828 16.2356 67.9871 16.2356 68.0398 16.2356C68.0915 16.2356 68.1964 16.2356 68.3007 16.1811C69.1872 15.8539 70.0226 15.6903 70.7004 15.4722C71.3787 15.2541 71.9532 14.927 72.3706 14.4362C73.675 12.7459 72.1613 9.0382 71.327 8.43842H71.1705C70.2835 8.8201 69.6568 8.92915 68.9263 9.25631C68.4046 12.6914 67.9355 14.4362 67.8306 15.7994L67.779 15.9084ZM62.5085 6.96623C63.7613 6.9117 66.1609 6.85718 68.4046 6.85718C70.9613 6.85718 73.2576 6.9117 73.7267 7.07528C75.7094 8.00222 77.3274 12.9095 75.4485 14.8179C75.0311 15.2541 74.5093 15.5813 73.9359 15.8539C73.3614 16.1265 72.6831 16.3992 71.9005 16.7808L71.5352 16.9444L71.9005 17.108C72.6831 17.4897 73.3092 17.7078 73.831 17.8168C74.0919 17.8714 74.3011 17.9259 74.4577 18.0349C74.6137 18.0895 74.7702 18.144 74.8746 18.253C77.64 20.6522 76.4921 26.4864 74.9268 27.3043C73.3614 28.1222 72.3706 28.2857 70.7004 28.2857C68.979 28.2857 66.5262 28.0131 62.0394 28.0676H61.8302C61.5693 28.0676 61.4133 27.9041 61.8302 27.6314C62.8221 26.9771 63.7086 26.5409 64.3874 26.1593C64.8048 25.9411 65.1701 25.723 65.4826 25.5049C65.7435 25.2868 65.9527 25.0687 66.0044 24.7961C66.3175 22.4515 66.5262 20.9248 66.6827 19.8343C66.8392 18.6892 66.8919 17.9804 66.8919 17.2716C66.8919 16.5627 66.7871 15.7994 66.5784 14.6543C66.4218 13.5093 66.1609 11.9281 65.7957 9.52893C65.1174 8.92915 64.544 8.602 64.0222 8.22032C63.6048 7.94769 63.1868 7.72959 62.665 7.40243C62.1433 7.23886 62.0911 6.96623 62.5085 6.96623Z" fill="black"/>
<path fill-rule="evenodd" clip-rule="evenodd" d="M79.5358 21.916C79.484 22.2415 79.484 22.8378 79.6393 23.2725C79.8469 23.7602 80.3122 23.9778 81.0369 23.598C82.4351 22.9464 82.6939 22.1873 82.6416 21.4277C82.4351 19.7999 81.9687 13.1261 81.5546 11.0643L81.3475 10.0876L81.1922 11.0643C80.4157 16.8157 80.1569 18.1179 79.5358 21.916ZM71.7711 29.5122C75.1881 28.427 76.3781 26.5822 77.3622 24.4656C78.4487 22.1873 79.588 14.9709 80.3645 9.43654C80.468 8.51415 80.2605 8.13434 79.484 7.64601C78.8116 7.2114 77.621 6.72362 75.8092 5.58365C75.4469 5.36716 75.4469 5.15012 75.8092 5.15012C77.621 5.09587 82.6416 5.36716 85.6445 5.20438C86.0063 5.20438 86.0063 5.36716 85.6445 5.63845C84.6604 6.23529 83.2115 7.26621 82.8487 7.42898C82.0722 7.80879 82.124 8.67693 82.2275 9.21951C82.8487 12.1495 83.4181 15.7305 83.9357 18.8233C84.4534 21.916 84.971 24.6289 85.4369 25.8769C85.7998 26.8535 88.3357 27.9387 92.9945 29.2951C93.3056 29.4037 93.2015 29.4574 92.9945 29.5122C89.8369 29.8914 85.5922 29.5664 84.1428 29.675C83.4704 29.7287 83.4181 29.5664 83.4181 29.5664V29.4037C83.4704 29.2951 83.4704 29.1861 83.5216 29.1324C83.6251 28.5898 83.8327 27.1248 83.4181 26.2567C83.2115 25.7683 82.7451 25.6056 82.331 25.5508H81.6586L81.141 25.6056C80.8299 25.6056 80.5193 25.6056 80.2092 25.6593C79.9504 25.6593 79.6393 25.7683 79.4327 25.9306C78.9663 26.3646 79.1739 27.2333 79.4327 27.9387C79.6916 28.5898 80.0534 29.2409 80.3122 29.5664C80.3645 29.6202 80.8821 30 80.3122 30C77.2586 29.9462 73.5311 29.9463 71.7711 29.8914C71.4605 29.7287 71.5123 29.6202 71.7711 29.5122Z" fill="black"/>
<path fill-rule="evenodd" clip-rule="evenodd" d="M4.17696 10.6671C3.81298 10.4042 1.78504 9.1948 0.173091 8.0906C-0.138899 7.88027 0.0170956 7.66995 0.277087 7.72253C2.929 7.98543 8.80482 8.14318 14.0567 8.3535H14.4206C14.5766 8.40608 14.5766 8.40608 14.5766 8.45867V8.87932C14.4726 9.66804 14.3686 11.6135 14.2126 13.5065C14.2126 13.7694 13.9527 13.822 13.7967 13.5065C13.6407 13.191 13.3807 12.7703 13.1727 12.2971C12.7047 11.4558 12.1327 10.4568 11.7687 9.66804C11.6647 9.45771 11.5087 9.24739 11.0927 9.40513C8.54483 10.5093 8.02484 10.7197 7.81685 10.93C7.66086 11.0877 7.55686 11.561 7.45286 12.1919C7.34887 12.8755 7.19287 13.822 6.93288 15.1365C6.88088 15.5046 6.98488 15.7149 7.29687 15.8201C7.40086 15.8721 7.55686 15.8721 7.71285 15.8721C7.86885 15.8721 8.02484 15.9252 8.23284 15.9252L8.85682 16.0304C9.01281 16.0304 9.16881 16.083 9.27281 16.083C9.5328 16.083 9.68879 15.9252 9.84479 15.6623C10.0528 15.2942 10.7808 14.0323 11.3527 12.8755C11.5087 12.6126 11.7687 12.56 11.7687 12.8755C11.7687 14.4529 11.7687 17.7125 11.8207 20.3946C11.8207 20.6575 11.5607 20.6575 11.4047 20.3946C10.9368 19.5528 10.6248 18.8172 10.3648 18.2383C10.2088 17.8707 10.0528 17.6078 9.94878 17.3975L9.79279 17.1866C9.58479 16.9768 9.4808 17.0294 9.4288 17.0294C9.3768 17.0294 9.3248 17.082 9.22081 17.082C9.06481 17.1346 8.90882 17.2397 8.70082 17.3449C8.28484 17.5552 7.81685 17.8707 7.29687 18.1862C7.03688 18.344 6.98488 18.4491 7.08887 18.9223C7.55686 20.8673 7.92085 21.5514 8.44083 23.4964C8.54483 23.865 8.70082 24.0753 9.06481 24.1805C9.3768 24.2851 9.84479 24.3908 10.7288 24.6537C11.7167 24.9692 12.2887 25.1795 12.6527 25.2321C13.0167 25.2847 13.2247 25.2321 13.3287 24.9166C13.9527 22.9185 14.3166 21.9721 14.6806 21.1302C14.9406 20.4472 15.2006 19.8157 15.5126 18.8172C15.6166 18.5543 15.8766 18.5543 15.9286 18.8172C16.4486 22.7608 16.3966 24.1805 16.6046 25.3367C16.7606 26.3363 16.3966 26.5466 15.9286 26.5466C11.3527 26.6513 4.48896 26.3884 1.83704 26.4415C1.42105 26.4415 1.47305 26.2312 1.83704 26.0208C4.28096 24.548 4.95694 23.7072 5.16493 23.3918C5.47692 23.0237 5.73692 20.2895 5.84091 18.9223C5.89291 17.8707 5.63292 13.4013 5.52892 12.5074C5.21693 11.5084 5.06094 11.2981 4.17696 10.6671Z" fill="black"/>
<path fill-rule="evenodd" clip-rule="evenodd" d="M27.6723 7.56828C28.4501 7.56828 29.7464 7.62126 31.0426 7.78022C32.8574 7.99216 34.5166 8.41605 34.9314 9.05188C36.0203 10.8004 36.6425 12.443 37.2647 14.4564C37.8869 16.4699 38.561 18.6953 39.7017 21.556L40.0647 22.4043V21.4505C39.961 17.3171 39.961 12.231 40.0128 8.20411C40.0128 6.40259 40.3758 6.24363 41.3091 6.13766C43.3313 5.9787 45.4571 5.9787 47.1164 6.03169C47.5312 6.03169 47.5312 6.24363 47.1164 6.45558C43.9535 7.99216 42.3979 10.5885 41.6202 14.0855C41.2054 15.887 40.998 18.0065 40.8943 20.2849C40.7906 22.5633 40.7387 25.0001 40.635 27.6494C40.635 28.0738 40.4795 28.2327 40.4276 28.2857C40.3758 28.2857 40.3239 28.2857 40.2721 28.1268C39.8573 26.6961 39.2351 24.3118 38.1462 21.6095C37.0573 18.8542 35.5018 15.7811 33.2722 13.0258L32.9093 12.5489L32.9611 13.1318C33.687 20.0199 34.3092 21.6095 34.8277 22.5633C35.1907 23.2521 36.4351 24.1528 37.2129 24.6827C37.6277 24.9476 37.4721 25.1066 37.2129 25.1066C35.087 25.0536 31.3537 24.8416 29.176 24.7887C28.5538 24.7887 28.9168 24.5767 29.176 24.3648C30.0575 23.6754 31.9759 21.8744 32.0278 20.6028C32.0796 19.4901 31.7167 18.2184 31.5093 11.1713C30.7315 10.1646 28.9686 8.89292 27.6723 7.99216C27.3612 7.78022 27.4131 7.56828 27.6723 7.56828Z" fill="black"/>
<path fill-rule="evenodd" clip-rule="evenodd" d="M41.0204 28.6103C41.2828 28.4506 41.5976 28.2376 41.9125 28.024C42.8045 27.4387 43.9064 26.6926 44.5361 26.0009C45.6905 24.7228 45.9529 15.7227 45.0083 13.8588C44.7985 13.4328 44.5361 13.06 44.3262 12.7405C44.1163 12.4209 43.9064 12.1547 43.749 11.9416C43.6441 11.8351 43.5916 11.7286 43.5391 11.6221C43.2243 11.1961 43.4342 11.1961 43.5391 11.1961H43.8015C44.2213 11.1961 44.9034 11.2493 46.1103 11.2493C47.527 11.2493 48.3666 11.1961 48.8913 11.1428H49.2586C49.3636 11.1428 49.521 11.2493 49.2586 11.5689C49.2062 11.6221 49.2062 11.6221 49.1537 11.6754C48.7864 12.1014 48.1042 12.9002 47.1073 14.2316C46.5825 14.9239 46.8974 24.1902 47.9468 26.0541C48.3666 26.7464 48.9963 27.4387 49.6259 27.9713C49.9408 28.2376 50.2031 28.6636 50.4655 28.8766H50.518C50.8853 29.0891 50.7803 29.0891 50.518 29.0891C49.3636 29.1429 47.3171 29.1961 45.2707 29.0364C43.4866 28.9299 42.2798 28.9299 41.4927 28.9831H41.0204C40.863 29.0364 40.5482 28.9299 41.0204 28.6103Z" fill="black"/>
<mask id="mask0" mask-type="alpha" maskUnits="userSpaceOnUse" x="44" y="0" width="5" height="5">
<path fill-rule="evenodd" clip-rule="evenodd" d="M44.1489 0.124023H48.7783V4.99991H44.1489V0.124023Z" fill="white"/>
</mask>
<g mask="url(#mask0)">
<path fill-rule="evenodd" clip-rule="evenodd" d="M48.6587 3.42857C47.8599 5.71429 45.164 5.14286 44.515 4C43.8161 2.74286 44.0158 0.857145 46.0127 0.228573C48.0596 -0.399998 49.1579 1.94286 48.6587 3.42857Z" fill="black"/>
</g>
<path fill-rule="evenodd" clip-rule="evenodd" d="M93.4961 6.00596C95.6349 6.16626 101.215 6.5403 105.752 6.5403C106.117 6.5403 106.065 6.75403 105.752 6.96777C104.865 7.44868 103.979 7.92958 103.249 8.30362C102.779 8.57079 102.362 8.78452 102.101 8.94483C101.945 9.05169 101.841 9.10513 101.736 9.212C101.58 9.3723 101.58 9.42573 101.528 9.47917C101.319 11.3494 100.85 15.0363 100.485 18.3497C100.119 21.6087 99.8587 24.7078 100.172 25.1353C100.38 25.4025 100.902 25.6162 101.736 25.9903C102.571 26.3109 103.719 26.7918 105.283 27.3795C105.387 27.4335 107.525 23.7995 108.307 22.4102C108.464 22.143 108.725 21.9293 108.725 22.4102C108.777 24.1735 108.829 26.9521 108.985 28.6085C109.038 28.9826 108.934 29.0365 108.934 29.0894C108.881 29.1429 108.725 29.1429 108.62 29.1429C103.197 29.0365 100.641 28.9826 94.8526 28.9826C94.7478 28.9826 94.3311 28.9826 94.8526 28.5551C95.9994 27.7007 98.0334 25.9903 98.3985 25.5633C99.0764 24.7618 99.0764 23.1588 98.92 20.5934C98.764 17.9752 98.3463 14.2348 98.0334 9.15856C98.0334 8.83796 96.886 8.19675 93.444 6.38C93.2353 6.27313 92.9746 5.95253 93.4961 6.00596Z" fill="black"/>
<path fill-rule="evenodd" clip-rule="evenodd" d="M103.175 19.7144C104.579 19.7144 105.672 20.8394 105.672 22.2858C105.672 23.7322 104.579 24.8572 103.175 24.8572C101.772 24.8572 100.679 23.7322 100.679 22.2858C100.679 20.8394 101.823 19.7144 103.175 19.7144ZM103.175 20.0894C101.979 20.0894 101.043 21.0536 101.043 22.2858C101.043 23.5179 101.979 24.4822 103.175 24.4822C104.372 24.4822 105.308 23.5179 105.308 22.2858C105.308 21.0536 104.372 20.0894 103.175 20.0894Z" fill="black"/>
<path fill-rule="evenodd" clip-rule="evenodd" d="M103.518 22.6441H103.763C104.057 22.6441 104.302 22.5038 104.302 22.2233C104.302 21.9428 104.106 21.8025 103.763 21.8025H103.518V22.6441ZM103.518 22.9246V23.9531H103.176V21.4285H103.714C104.253 21.4285 104.644 21.6622 104.644 22.1765C104.644 22.5973 104.253 22.8311 104.008 22.8778L104.84 23.9999H104.399L103.616 22.9713L103.518 22.9246Z" fill="black"/>
<path fill-rule="evenodd" clip-rule="evenodd" d="M48.6464 26.0433C49.2654 25.4094 50.1423 24.4587 50.6065 23.772C50.7613 23.5607 50.8128 22.3992 50.8644 21.2366C50.916 20.0222 50.916 18.5955 50.916 17.6975C50.9676 15.9016 50.2455 10.1969 50.0907 10.0385C50.0391 9.98566 49.9875 9.93284 49.8844 9.88002L49.5749 9.66874C49.317 9.51027 49.0591 9.35181 48.698 9.14053C48.0274 8.77078 47.2537 8.29539 46.6347 7.87282C46.5316 7.76718 46.6347 7.71436 46.8927 7.71436C50.6581 7.71436 58.0343 7.71436 58.808 7.82C58.8596 7.82 58.8596 7.82 58.8596 7.87282V7.92564V9.72156C58.8596 10.6723 58.808 11.8872 58.808 13.1021C58.808 13.6831 58.6532 13.4719 58.3953 13.1021C57.8795 12.3098 57.4153 11.5175 57.0542 10.8836C56.8479 10.5139 56.6416 10.1969 56.4868 9.93284C56.3321 9.66874 56.1773 9.51027 56.0742 9.40463C55.971 9.35181 55.8678 9.35181 55.7647 9.35181C55.6615 9.35181 55.5583 9.35181 55.4036 9.40463C55.1457 9.45745 54.8362 9.56309 54.4236 9.72156C54.0109 9.8272 53.7014 9.93284 53.4435 9.98566C53.3403 10.0385 53.1856 10.0913 53.0824 10.1441C52.9793 10.1969 52.9277 10.3026 52.8761 10.4611C52.6698 11.7816 51.9992 14.9509 51.8961 15.6903C51.8961 15.9545 51.9992 16.1129 52.2055 16.1657C52.3087 16.2186 52.4119 16.2186 52.5666 16.2186L53.0309 16.2714C53.3919 16.3247 53.6498 16.377 53.8046 16.377C53.9593 16.377 54.1656 16.377 54.2688 16.1657C54.8362 15.0565 55.4552 13.8944 55.8678 13.1021C56.1773 12.5739 56.2805 12.5211 56.2805 13.1021C56.1773 14.9509 56.0742 18.9658 56.0226 20.7612C56.0226 21.4478 55.8163 21.1837 55.6099 20.7612C55.0425 19.494 54.6815 18.7017 54.1141 17.5919C54.0109 17.3812 53.8562 17.3278 53.5982 17.3812C53.4435 17.4334 53.1856 17.5391 52.8245 17.6975L52.3087 17.856C52.154 17.9094 52.0508 17.9617 51.9992 18.0145C51.7929 18.1201 51.7413 18.2786 51.7929 18.4376C52.5666 21.5007 53.3403 24.3002 53.5982 24.4587C54.1141 24.7761 54.5267 25.0402 54.8878 25.251C55.0425 25.3566 55.1973 25.4623 55.3004 25.4623C55.352 25.4623 55.4036 25.5151 55.4552 25.5151C55.5068 25.5151 55.6099 25.5151 55.6615 25.4623C56.1773 25.0402 56.7447 23.9838 57.3121 22.8212C57.7248 21.9761 58.0858 21.0253 58.4469 20.233C58.6532 19.7581 58.808 19.5991 58.8596 20.233C58.9627 21.9761 59.1175 25.8325 59.0659 26.2017V26.4659C59.0143 26.5715 58.9111 26.5715 58.7564 26.5715C58.1374 26.5715 50.7613 26.4659 48.3885 26.5187C48.1306 26.4659 48.4401 26.2546 48.6464 26.0433Z" fill="black"/>
<path fill-rule="evenodd" clip-rule="evenodd" d="M97.3429 25.0152C97.3959 25.4883 97.1822 25.4883 96.968 25.5403C94.1823 25.856 88.8263 25.6459 85.2378 25.6459C84.97 25.6459 84.97 25.5403 85.2378 25.2258C85.7204 24.6476 86.4161 23.8599 87.0058 23.1772L87.9158 22.1268C88.1836 21.8643 88.3448 21.6547 88.3984 21.5497C88.5055 21.3391 87.595 14.0925 87.1665 11.3612C86.8987 11.0467 86.2024 10.5735 85.399 10.1014C84.8093 9.73377 84.1136 9.36617 83.4703 8.99804C83.2025 8.84101 83.0424 8.57844 83.4703 8.57844C85.5597 8.52592 87.648 8.7885 94.7179 8.84101C95.2005 8.84101 95.0398 9.10359 94.7179 9.26061C94.1293 9.52319 93.3259 9.89132 92.5755 10.2589C91.5584 10.7316 90.4872 11.2567 90.326 11.4668C89.9516 14.7747 89.6838 17.558 89.5226 19.5011C89.4696 20.4994 89.416 21.2341 89.3619 21.8123V22.4425C89.3619 22.547 89.3619 22.6 89.416 22.652C89.4696 22.7576 89.5226 22.8095 89.5767 22.8626C90.3801 23.1772 91.4513 23.5453 92.3077 23.8599C92.7362 24.0179 93.1652 24.1224 93.433 24.2275C93.5937 24.2805 93.7008 24.2805 93.8074 24.333H94.1293C94.3971 24.1755 94.9327 23.2827 95.4142 22.3374C95.8432 21.6017 96.2717 20.762 96.5925 20.1838C96.9144 19.8167 97.1281 19.6066 97.1822 20.0793C97.2888 21.8123 97.3429 24.2805 97.3429 25.0152Z" fill="black"/>
</svg>
