<svg width="145" height="35" viewBox="0 0 145 35" fill="none" xmlns="http://www.w3.org/2000/svg">
<path fill-rule="evenodd" clip-rule="evenodd" d="M63.9846 14.8877H53.7611C53.7161 14.8877 53.6797 14.9243 53.6797 14.9698V29.322C53.6797 29.3672 53.7161 29.4038 53.7611 29.4038H62.8905C62.9207 29.4038 62.9486 29.3867 62.9626 29.3596L64.0567 27.2111C64.0848 27.1564 64.0455 27.0916 63.9846 27.0916H56.3504V23.2456H59.8176C59.8486 23.2456 59.8772 23.2275 59.8907 23.1992L60.9952 21.03C61.0213 20.9759 60.9818 20.9129 60.9219 20.9129H56.3504V17.1997H62.8757C62.9061 17.1997 62.934 17.1827 62.948 17.1556L64.0567 15.0071C64.0848 14.9526 64.0455 14.8877 63.9846 14.8877Z" fill="#0A0B09"/>
<path fill-rule="evenodd" clip-rule="evenodd" d="M96.5138 23.6061H96.5124L87.3044 14.6572C87.2035 14.5491 87.0229 14.6208 87.0229 14.7692V29.3223C87.0229 29.3674 87.0593 29.404 87.1042 29.404H89.5915C89.6365 29.404 89.6729 29.3674 89.6729 29.3223L89.6742 20.6962L98.8823 29.6594C98.9832 29.7676 99.1636 29.6957 99.1636 29.5474V17.1062C99.1636 17.0834 99.1543 17.0617 99.1376 17.046L96.6503 14.6272C96.5982 14.5788 96.5138 14.6158 96.5138 14.6871V23.6061Z" fill="#0A0B09"/>
<path fill-rule="evenodd" clip-rule="evenodd" d="M106.259 29.3561C106.246 29.3852 106.217 29.4039 106.185 29.4039H103.114C103.055 29.4039 103.015 29.3421 103.04 29.2879L110.579 14.7005C110.636 14.5738 110.816 14.5733 110.874 14.6999L118.416 29.2876C118.44 29.3418 118.401 29.4039 118.342 29.4039H115.348C115.316 29.4039 115.287 29.3851 115.274 29.3559C115.274 29.3559 110.771 20.3101 110.759 20.3101L106.259 29.3561Z" fill="#0A0B09"/>
<path fill-rule="evenodd" clip-rule="evenodd" d="M142.021 29.2737L136.824 24.3689C138.42 23.4808 139.488 21.7566 139.43 19.7937C139.348 17.042 137.015 14.8877 134.258 14.8877H128.591C128.526 14.8877 128.487 14.9609 128.522 15.0154L131.178 17.5472C131.194 17.57 131.22 17.5839 131.247 17.5839H134.298C135.56 17.5839 136.649 18.5693 136.711 19.8285C136.776 21.1559 135.729 22.259 134.422 22.2895H131.038C130.97 22.2895 130.931 22.365 130.97 22.4196L138.203 29.3709C138.219 29.3916 138.243 29.4038 138.269 29.4038H141.954C142.021 29.4038 142.06 29.328 142.021 29.2737Z" fill="#0A0B09"/>
<path fill-rule="evenodd" clip-rule="evenodd" d="M125.065 14.6868V29.3219C125.065 29.3672 125.028 29.4037 124.983 29.4037H122.4C122.356 29.4037 122.319 29.3672 122.319 29.3219V17.1666C122.319 17.1437 122.328 17.1218 122.345 17.1064L124.928 14.6265C124.981 14.5786 125.065 14.6159 125.065 14.6868Z" fill="#0A0B09"/>
<path fill-rule="evenodd" clip-rule="evenodd" d="M78.6579 23.606L69.4485 14.657C69.3475 14.5488 69.167 14.6205 69.167 14.769V29.3221C69.167 29.3672 69.2035 29.4038 69.2483 29.4038H71.7357C71.7807 29.4038 71.8169 29.3672 71.8169 29.3221L71.8183 20.696L81.0264 29.6593C81.1274 29.7675 81.3078 29.6955 81.3078 29.5472V17.106C81.3078 17.0832 81.2985 17.0615 81.2818 17.0459L78.7945 14.6269C78.7424 14.5785 78.6579 14.6155 78.6579 14.6868V23.606Z" fill="#0A0B09"/>
<mask id="mask0" mask-type="alpha" maskUnits="userSpaceOnUse" x="0" y="0" width="48" height="35">
<path fill-rule="evenodd" clip-rule="evenodd" d="M0.00634766 0.101074H47.969V34.9936H0.00634766V0.101074Z" fill="white"/>
</mask>
<g mask="url(#mask0)">
<path fill-rule="evenodd" clip-rule="evenodd" d="M36.7744 25.7965C36.7744 27.7747 38.4013 29.3719 40.3654 29.3881L40.3653 29.3924H44.3785L44.3781 29.3881C46.3423 29.3719 47.9692 27.7747 47.9692 25.7965V14.6849C47.9692 14.6138 47.8589 14.5794 47.8069 14.6276L45.2606 17.0584C45.2437 17.0738 45.2233 17.0955 45.2233 17.1185V25.2253C45.2233 26.2194 44.4438 27.052 43.4551 27.052H41.2884C40.2998 27.052 39.5203 26.2734 39.5203 25.2253V23.315C39.5203 23.2439 39.408 23.2053 39.3559 23.2535L36.8157 25.6761C36.7988 25.6916 36.7744 25.7125 36.7744 25.7355V25.7965Z" fill="#0A0B09"/>
<path fill-rule="evenodd" clip-rule="evenodd" d="M0 25.6397L11.4223 14.6752V29.0202C11.4223 29.3244 12.0276 29.571 12.774 29.571C13.5204 29.571 14.1302 29.3244 14.1302 29.0202V0.101074L25.5679 11.0702V33.8402C25.5679 34.4747 25.0616 34.9894 24.4337 34.9992L24.4326 35H1.15207C0.515743 35 0 34.4808 0 33.8402V25.6397Z" fill="#0A0B09"/>
</g>
<path fill-rule="evenodd" clip-rule="evenodd" d="M143.26 16.232H143.414C143.592 16.232 143.737 16.172 143.737 16.0263C143.737 15.8981 143.643 15.8124 143.439 15.8124C143.353 15.8124 143.294 15.8208 143.26 15.8292V16.232ZM143.252 17.0277H142.929V15.6244C143.056 15.5987 143.235 15.581 143.464 15.581C143.729 15.581 143.847 15.6244 143.95 15.6842C144.026 15.7435 144.085 15.8549 144.085 15.9923C144.085 16.1463 143.966 16.266 143.796 16.3172V16.3344C143.933 16.3859 144.009 16.4883 144.051 16.6765C144.094 16.8906 144.119 16.9762 144.153 17.0277H143.805C143.762 16.9762 143.737 16.848 143.694 16.685C143.669 16.5308 143.584 16.4626 143.405 16.4626H143.252V17.0277ZM142.393 16.2912C142.393 16.9163 142.853 17.4124 143.481 17.4124C144.094 17.4124 144.545 16.9163 144.545 16.3C144.545 15.675 144.094 15.1706 143.473 15.1706C142.853 15.1706 142.393 15.675 142.393 16.2912ZM143.473 17.7121C142.674 17.7121 142.037 17.0876 142.037 16.2912C142.037 15.5128 142.674 14.8877 143.473 14.8877C144.281 14.8877 144.902 15.5128 144.902 16.2912C144.902 17.0876 144.281 17.7121 143.473 17.7121Z" fill="#0A0B09"/>
</svg>
