<svg xmlns="http://www.w3.org/2000/svg" xmlns:xlink="http://www.w3.org/1999/xlink" viewBox="0 0 2040.36 177.06"><defs><style>.cls-1{fill:#fff;}.cls-1,.cls-2{fill-rule:evenodd;}.cls-3{mask:url(#mask);}.cls-4{mask:url(#mask-4);}.cls-5{mask:url(#mask-9);}.cls-6{mask:url(#mask-10);}.cls-7{mask:url(#mask-11);}</style><mask id="mask" x="104.27" y="11.59" width="1911.63" height="162.2" maskUnits="userSpaceOnUse"><g id="mask-2"><polygon id="path-1" class="cls-1" points="104.27 173.78 2015.9 173.78 2015.9 11.59 104.27 11.59 104.27 173.78"/></g></mask><mask id="mask-4" x="104.27" y="11.59" width="1911.63" height="164.87" maskUnits="userSpaceOnUse"><g id="mask-2-5" data-name="mask-2"><polygon id="path-1-4" data-name="path-1" class="cls-1" points="104.27 173.78 2015.9 173.78 2015.9 11.59 104.27 11.59 104.27 173.78"/></g></mask><mask id="mask-9" x="104.27" y="11.59" width="1911.63" height="165.48" maskUnits="userSpaceOnUse"><g id="mask-2-10" data-name="mask-2"><polygon id="path-1-9" data-name="path-1" class="cls-1" points="104.27 173.78 2015.9 173.78 2015.9 11.59 104.27 11.59 104.27 173.78"/></g></mask><mask id="mask-10" x="104.27" y="0.33" width="1911.63" height="173.46" maskUnits="userSpaceOnUse"><g id="mask-2-11" data-name="mask-2"><polygon id="path-1-10" data-name="path-1" class="cls-1" points="104.27 173.78 2015.9 173.78 2015.9 11.59 104.27 11.59 104.27 173.78"/></g></mask><mask id="mask-11" x="104.27" y="11.59" width="1936.09" height="163.31" maskUnits="userSpaceOnUse"><g id="mask-2-12" data-name="mask-2"><polygon id="path-1-11" data-name="path-1" class="cls-1" points="104.27 173.78 2015.9 173.78 2015.9 11.59 104.27 11.59 104.27 173.78"/></g></mask></defs><title>svg3416</title><g id="Layer_2" data-name="Layer 2"><g id="svg3416"><g id="Direction-02"><g id="About_02-Copy" data-name="About 02-Copy"><g id="Group-16"><path id="Fill-1" class="cls-2" d="M175.34,63.79,233.21,0H167.63L120.74,62c-4.44,5.32-13,9.19-19.58,9.19h-11V0H0V170.78H89.9V118.39h14.25c6.53,0,9.78,1.79,13.35,8.31l25.22,44.08H251.31L200.87,85.16c-4.16-7.1-15.44-13-27.29-13-3,0-6,.31,1.76-8.32"/><g class="cls-3"><polygon id="Fill-3" class="cls-2" points="280.36 170.6 365.24 170.6 365.24 71.51 280.36 71.51 280.36 170.6"/></g><g class="cls-3"><path id="Fill-5" class="cls-2" d="M324.2,63.17c23.47-1.66,41.74-13.87,40.8-27.28S344.25,13,320.8,14.61,279.06,28.48,280,41.86s20.74,22.94,44.2,21.31"/></g><g class="cls-3"><path id="Fill-6" class="cls-2" d="M398.45,70.91h28.49V37.68H507V70.91h33.24v32.63h-32v19.58c0,19.58,22.54,18.39,32.62,9.52v27.87c-30.84,13.64-81.58,17.21-102.05,3.25-10.68-7.39-11.87-13.35-11.87-22.25V104.13H398.45Z"/></g><g class="cls-4"><path id="Fill-7" class="cls-2" d="M735.79,76.56c-43.91-22-103.7-18.1-133.2-2.07C555.26,100.15,556,142,602,165.85c33.22,17.23,112.14,12.46,133.51-7.12V131.16c-31.44,16-53.31,13.69-66.46,9.19-20.46-7-20.95-35.88,5.33-40.95a91.55,91.55,0,0,1,61.42,9.2"/></g><g class="cls-3"><path id="Fill-8" class="cls-2" d="M764.28,14.27V170.62h79.81V122.53c1.18-30.27,39.17-24.63,39.17-2.35v50.44h79.5v-61.7c0-29.1-52.2-61.74-118.07-28.53l1.17-66.12Z"/></g><g class="cls-3"><path id="Fill-9" class="cls-2" d="M1219.69,71.22V170.6h85.46V117.2c0-18.41,38.55-27.29,38.55.59V170h75.38V109.49c0-28.38-40.54-65-113.93-27.29v-11Z"/></g><g class="cls-3"><polygon id="Fill-10" class="cls-2" points="1723.19 170.5 1808.05 170.5 1808.05 71.43 1723.19 71.43 1723.19 170.5"/></g><g class="cls-3"><path id="Fill-11" class="cls-2" d="M1767.05,63.06c23.46-1.64,41.7-13.83,40.77-27.27s-20.73-22.93-44.21-21.27-41.7,13.85-40.76,27.25,20.71,22.95,44.2,21.29"/></g><g class="cls-5"><path id="Fill-13" class="cls-2" d="M1190.64,132.64c-54-4.16-111.57-.61-111.57-.61,16.61,27.29,84.27,23.15,106.8,5.35l-2.37,23.13c-45.09,26.71-182.75,25.53-185.13-36.78-2.11-55,79.52-62.9,97.31-62.9,42.12,0,103.84,19.58,95,71.81m-108.21-25.49h31.76c.52-10.09-8-15.14-17.14-15.14a15,15,0,0,0-14.62,15.14"/></g><g class="cls-6"><path id="Fill-14" class="cls-2" d="M1437.77,170.17h46.28l19.89-38.12h72.39l17.23,38.12H1703.3L1617.86.33h-109.2c10.7,4.15,13.67,11.26,10.7,17.18Zm80.41-67.8,24.91-46.29,20.17,46.29Z"/></g><g class="cls-7"><path id="Fill-15" class="cls-2" d="M2040.36,14.53V170h-80.1V159.32c-39.75,30.86-128.79,14.24-128.79-35.59,0-61.14,96.72-69.43,129.36-48.07V14.53Zm-80.23,92.86c-14.28-10.6-41.71-8-41.71,9,0,24.37,32.58,20.12,41.71,12.7Z"/></g></g></g></g></g></g></svg>