<svg width="71" height="38" viewBox="0 0 71 38" fill="none" xmlns="http://www.w3.org/2000/svg">
<path fill-rule="evenodd" clip-rule="evenodd" d="M35.1782 32.2034L33.7407 35.9368L32.3032 32.2034H30.5576L33.0219 38H34.4594L36.9237 32.2034H35.1782Z" fill="black"/>
<path fill-rule="evenodd" clip-rule="evenodd" d="M51.5654 32.2034V38H56.0217V36.6245H53.1859V32.2034H51.5654Z" fill="black"/>
<path fill-rule="evenodd" clip-rule="evenodd" d="M41.3799 32.2034V38H45.8362V36.7007H42.8324V35.7013H45.5455V34.501H42.8324V33.5026H45.8362V32.2034H41.3799Z" fill="black"/>
<path fill-rule="evenodd" clip-rule="evenodd" d="M4.29714 32.2034L2.96025 34.501L1.62336 32.2034H0V38H1.43238V34.601L2.86476 36.9006L4.29714 34.601V38H5.72951V32.2034H4.29714Z" fill="black"/>
<path fill-rule="evenodd" clip-rule="evenodd" d="M12.5099 32.2034L10.1858 38H11.8026L12.2068 36.9202H14.5309L14.9341 38H16.5519L14.0247 32.2034H12.5099ZM13.4194 34.0701L14.1267 35.7413H12.712L13.4194 34.0701Z" fill="black"/>
<path fill-rule="evenodd" clip-rule="evenodd" d="M61.1147 32.2034V38H65.571V36.6245H62.7346V32.2034H61.1147Z" fill="black"/>
<path fill-rule="evenodd" clip-rule="evenodd" d="M52.8389 23.1864H66.2077V21.2542H52.8389V23.1864Z" fill="black"/>
<path fill-rule="evenodd" clip-rule="evenodd" d="M52.8389 27.0509H66.2077V25.1187H52.8389V27.0509Z" fill="black"/>
<path fill-rule="evenodd" clip-rule="evenodd" d="M52.8389 19.3221H66.2077V17.3899H52.8389V19.3221Z" fill="black"/>
<path fill-rule="evenodd" clip-rule="evenodd" d="M51.2474 0L38.8335 14.4409V0H24.5097L0.636719 27.6949H14.9605L25.1781 15.8247H38.8335V17.8039H25.4646V19.7821H38.8335V21.7603H25.4646V23.7375H38.8335V25.7157H25.4646V27.6949H38.8335H41.6982L51.9149 15.8247H65.5712V0H51.2474Z" fill="black"/>
<path fill-rule="evenodd" clip-rule="evenodd" d="M68.7109 1.07204C68.7109 0.877167 68.6144 0.877167 68.3285 0.877167H68.1364H68.0418V1.36435H68.233C68.6144 1.36435 68.7109 1.26691 68.7109 1.07204ZM69.0924 2.33871H68.8065H68.7109L68.3285 1.75409H68.233H68.1364H68.0418V2.33871C68.0418 2.33871 68.0418 2.43614 67.9452 2.43614H67.8506C67.8506 2.43614 67.755 2.43614 67.755 2.33871V0.682295C67.755 0.58486 67.755 0.58486 67.8506 0.58486H68.3285C68.8065 0.58486 68.9977 0.682295 68.9977 1.16947C68.9977 1.46178 68.9012 1.55922 68.7109 1.65665L69.0924 2.33871C69.0924 2.24127 69.0924 2.24127 69.0924 2.33871ZM68.4232 0.292552C67.755 0.292552 67.277 0.877167 67.277 1.55922C67.277 2.24127 67.8506 2.72845 68.4232 2.72845C69.0924 2.72845 69.6669 2.14383 69.6669 1.55922C69.5703 0.779731 69.0924 0.292552 68.4232 0.292552ZM68.4232 2.92332C67.6584 2.92332 66.9893 2.24127 66.9893 1.46178C66.9893 0.682295 67.6584 0.000244141 68.4232 0.000244141C69.1889 0.000244141 69.8571 0.682295 69.8571 1.46178C69.8571 2.24127 69.1889 2.92332 68.4232 2.92332Z" fill="black"/>
<path fill-rule="evenodd" clip-rule="evenodd" d="M68.7109 33.2258C68.7109 33.031 68.6144 33.031 68.3285 33.031H68.1364H68.0418V33.5182H68.233C68.6144 33.5182 68.7109 33.4207 68.7109 33.2258ZM69.0924 34.4925H68.8065H68.7109L68.3285 33.9079H68.233H68.1364H68.0418V34.4925C68.0418 34.4925 68.0418 34.589 67.9452 34.589H67.8506C67.8506 34.589 67.755 34.589 67.755 34.4925V32.9335C67.755 32.8361 67.755 32.8361 67.8506 32.8361H68.3285C68.8065 32.8361 68.9977 32.9335 68.9977 33.4207C68.9977 33.713 68.9012 33.8105 68.7109 33.9079L69.0924 34.589V34.4925ZM68.4232 32.4464C67.755 32.4464 67.277 33.031 67.277 33.713C67.277 34.3951 67.8506 34.8823 68.4232 34.8823C69.0924 34.8823 69.6669 34.2976 69.6669 33.713C69.5703 32.9335 69.0924 32.4464 68.4232 32.4464ZM68.4232 35.0762C67.6584 35.0762 66.9893 34.3951 66.9893 33.6146C66.9893 32.8361 67.6584 32.1531 68.4232 32.1531C69.1889 32.1531 69.8571 32.8361 69.8571 33.6146C69.8571 34.3951 69.1889 35.0762 68.4232 35.0762Z" fill="black"/>
<path fill-rule="evenodd" clip-rule="evenodd" d="M24.2586 34.8825H23.0159V33.5183H24.2586C24.641 33.5183 24.9278 33.8097 24.9278 34.2004C24.9278 34.5892 24.641 34.8825 24.2586 34.8825ZM25.2145 35.9542C25.8837 35.6619 26.3617 34.9799 26.3617 34.2004C26.3617 33.7132 26.1705 33.226 25.8837 32.9337C25.4057 32.4466 24.7366 32.3481 24.0674 32.3481H21.4863V37.903H23.0159V36.1491H23.7806L24.8322 37.903H26.5529L25.2145 35.9542Z" fill="black"/>
</svg>
