<svg width="44" height="52" viewBox="0 0 44 52" fill="none" xmlns="http://www.w3.org/2000/svg">
<path d="M0 41.2739H1.63959L5.42763 46.404V41.2739H7.18595V49.5663H5.67639L1.75832 44.3323V49.5663H0V41.2739Z" fill="#211E1E"/>
<path fill-rule="evenodd" clip-rule="evenodd" d="M8.04004 46.4274V46.4504L8.04007 46.4504C8.04007 48.3778 9.41394 49.7051 11.274 49.7051C12.3935 49.7051 13.2302 49.2607 13.8013 48.5336L12.8006 47.6276C12.3143 48.0835 11.8903 48.274 11.2967 48.274C10.5108 48.274 9.96235 47.8469 9.78709 47.039H14.0953C14.0962 47.0249 14.0971 47.0109 14.0981 46.9968C14.1081 46.8446 14.1179 46.698 14.1179 46.5659C14.1179 44.7827 13.168 43.1497 11.1044 43.1497C9.30082 43.1497 8.04004 44.6269 8.04004 46.4274ZM11.1044 44.5807C11.8394 44.5807 12.303 45.1232 12.4048 45.9195H9.75878C9.90013 45.1116 10.375 44.5807 11.1044 44.5807Z" fill="#211E1E"/>
<path d="M15.2148 47.7774V44.794H14.4741V43.2648H15.2148V41.6548H16.9674V43.2648H18.4261V44.794H16.9674V47.4831C16.9674 47.8986 17.1427 48.0948 17.5328 48.0948C17.8607 48.0948 18.1491 48.0139 18.4035 47.8755V49.3066C18.0304 49.5317 17.6007 49.6701 17.0127 49.6701C15.9441 49.6701 15.2148 49.2373 15.2148 47.7774Z" fill="#211E1E"/>
<path fill-rule="evenodd" clip-rule="evenodd" d="M29.4058 43.2653H27.6475V51.448H29.4058V48.7473C29.8185 49.2494 30.3952 49.6822 31.3337 49.6822C32.7981 49.6822 34.1493 48.5338 34.1493 46.4276V46.4045C34.1493 44.2983 32.7754 43.1499 31.3337 43.1499C30.4178 43.1499 29.8298 43.5827 29.4058 44.1713V43.2653ZM32.3966 46.4046V46.4276C32.3966 47.4836 31.7012 48.1703 30.8814 48.1703C30.0616 48.1703 29.3832 47.4721 29.3832 46.4276V46.4046C29.3832 45.3601 30.0616 44.6618 30.8814 44.6618C31.7012 44.6618 32.3966 45.3601 32.3966 46.4046Z" fill="#211E1E"/>
<path fill-rule="evenodd" clip-rule="evenodd" d="M36.6255 43.2653H34.8672V51.448H36.6255V48.7473C37.0382 49.2494 37.6149 49.6822 38.5535 49.6822C40.0178 49.6822 41.369 48.5338 41.369 46.4276V46.4045C41.369 44.2983 39.9952 43.1499 38.5535 43.1499C37.6375 43.1499 37.0496 43.5827 36.6255 44.1713V43.2653ZM39.6164 46.4046V46.4276C39.6164 47.4836 38.921 48.1703 38.1012 48.1703C37.2814 48.1703 36.5972 47.4721 36.5972 46.4276V46.4046C36.5972 45.3601 37.2814 44.6618 38.1012 44.6618C38.921 44.6618 39.6164 45.3601 39.6164 46.4046Z" fill="#211E1E"/>
<path fill-rule="evenodd" clip-rule="evenodd" d="M23.8306 41.2744H22.2306L18.8496 49.5668H20.6645L21.4051 47.7202H24.6108L25.3571 49.5668H27.2059L23.8306 41.2744ZM23.0051 43.4499L24.0794 46.1217H21.9309L23.0051 43.4499Z" fill="#211E1E"/>
<path d="M3.47368e-05 0.118164V35.0591H16.0172V14.0945H25.1707V35.0591H41.1878V0.118164H0" fill="black"/>
<path fill-rule="evenodd" clip-rule="evenodd" d="M41.7868 43.4493H42.1769V43.2646H41.1875V43.4493H41.5776V44.6727H41.7868V43.4493ZM43.5904 44.6727H43.7995L43.7993 43.2646H43.4827L43.1152 44.3322L42.7477 43.2646H42.4254V44.6727H42.6346V43.4955H42.6404L43.0475 44.6727H43.1775L43.5846 43.4955H43.5904V44.6727Z" fill="#211E1E"/>
</svg>
