<svg width="85" height="41" viewBox="0 0 85 41" fill="none" xmlns="http://www.w3.org/2000/svg">
<path fill-rule="evenodd" clip-rule="evenodd" d="M2.57816 8.8989H3.22893C5.2061 8.8989 5.4816 8.51037 5.4816 5.71177C5.4816 2.93924 5.33142 2.67977 3.77958 2.67977H2.57816V8.8989ZM0.0751953 0.503418H3.95496C7.60895 0.503418 7.98456 1.51385 7.98456 5.60811C7.98456 8.12185 7.65935 9.2102 5.60658 9.85785V9.90968C7.30893 10.0912 7.88444 10.9977 7.88444 12.7601V16.8286C7.88444 17.5024 7.88444 18.4349 8.03462 19.2123H5.68184C5.43154 18.7462 5.38148 18.2794 5.38148 17.5281V13.3041C5.38148 11.5424 5.08112 11.0759 3.42917 11.0759H2.57816V19.2123H0.0751953V0.503418Z" fill="black"/>
<path fill-rule="evenodd" clip-rule="evenodd" d="M11.5139 14.8849C11.5139 16.4916 12.215 17.3469 13.2411 17.3469C14.2923 17.3469 14.9928 16.4916 14.9928 14.8849V5.06407C14.9928 3.22442 14.3924 2.36912 13.2411 2.36912C12.1146 2.36912 11.5139 3.22442 11.5139 5.06407V14.8849ZM9.01123 5.27138C9.01123 2.65399 9.83704 0.3479 13.2411 0.3479C16.4697 0.3479 17.4961 2.0839 17.4961 4.98651V14.4442C17.4961 17.0616 16.67 19.3681 13.2411 19.3681C10.0373 19.3681 9.01123 17.6314 9.01123 14.7291V5.27138Z" fill="black"/>
<path fill-rule="evenodd" clip-rule="evenodd" d="M21.1258 12.2679H24.3044L22.7525 3.2502H22.7025L21.1258 12.2679ZM21.4009 0.503418H24.3044L27.9836 19.2123H25.4806L24.6548 14.4443H20.7502L19.9244 19.2123H17.4214L21.4009 0.503418Z" fill="black"/>
<path fill-rule="evenodd" clip-rule="evenodd" d="M30.9626 17.0355H32.164C34.0165 17.0355 34.367 16.0254 34.367 12.8118V6.3854C34.367 3.61323 34.0915 2.68001 31.9638 2.68001H30.9626V17.0355ZM28.46 0.503662H32.4899C36.5444 0.503662 36.8696 1.90262 36.8696 7.34436V12.9158C36.8696 17.7096 36.0438 19.2125 32.0894 19.2125H28.46V0.503662Z" fill="black"/>
<mask id="mask0" mask-type="alpha" maskUnits="userSpaceOnUse" x="38" y="0" width="9" height="20">
<path fill-rule="evenodd" clip-rule="evenodd" d="M38.1216 0.3479H46.0803V19.3683H38.1216V0.3479Z" fill="white"/>
</mask>
<g mask="url(#mask0)">
<path fill-rule="evenodd" clip-rule="evenodd" d="M38.1216 13.7967H40.6242V15.3254C40.6242 16.5692 41.0751 17.347 42.0763 17.347C43.4027 17.347 43.7279 16.4141 43.7279 15.196C43.7279 13.6155 43.6526 13.0972 41.0502 10.428C39.4483 8.76957 38.1216 7.26661 38.1216 4.72713C38.1216 1.6694 39.4984 0.347656 42.2261 0.347656C43.5777 0.347656 44.554 0.814091 45.1547 1.38418C45.5804 1.79913 45.8811 2.44679 45.8811 3.76818V5.53026H43.528V4.0534C43.528 2.99113 43.1026 2.36922 42.1263 2.36922C41.0999 2.36922 40.6242 2.96505 40.6242 4.41618C40.6242 5.68609 40.8748 6.46348 43.1776 8.95079C45.6305 11.5939 46.0803 12.501 46.0803 14.7557C46.0803 17.6837 44.9794 19.3682 42.001 19.3682C39.6983 19.3682 38.1216 18.3574 38.1216 16.0252V13.7967Z" fill="black"/>
</g>
<mask id="mask1" mask-type="alpha" maskUnits="userSpaceOnUse" x="0" y="20" width="9" height="20">
<path fill-rule="evenodd" clip-rule="evenodd" d="M0 20.9043H8.78541V39.769H0V20.9043Z" fill="white"/>
</mask>
<g mask="url(#mask1)">
<path fill-rule="evenodd" clip-rule="evenodd" d="M2.77846 24.6876C2.77846 25.6723 2.90377 26.5273 3.60427 28.1081C4.70591 26.6827 4.95621 25.8017 4.95621 24.5579C4.95621 23.418 4.60545 22.77 3.87976 22.77C3.02909 22.77 2.77846 23.4695 2.77846 24.6876ZM2.80332 31.3989C2.45324 31.9172 2.35312 32.7982 2.35312 34.7937C2.35312 36.9186 2.65348 37.9029 3.70472 37.9029C4.30543 37.9029 4.68071 37.7217 5.1813 37.1259L2.80332 31.3989ZM6.10757 34.0681H6.15763V30.1551H8.25978V33.9123C8.25978 35.4417 8.03502 36.6333 7.68427 37.1259L8.78557 39.6135H6.28261L6.05751 39.0688C5.38154 39.5359 4.35549 39.769 3.52935 39.769C0.651107 39.769 0 38.0326 0 34.9749C0 32.7467 0.125652 30.4146 2.02791 29.4553C1.1517 27.7711 0.675968 26.3718 0.675968 24.8173C0.675968 22.2518 1.97751 20.9043 3.8549 20.9043C6.13243 20.9043 7.0587 22.2775 7.0587 24.4546C7.0587 26.6827 6.13243 28.1857 4.45561 29.793L6.10757 34.0681Z" fill="black"/>
</g>
<path fill-rule="evenodd" clip-rule="evenodd" d="M11.439 20.9043H13.9419V29.4295H13.992L17.9467 20.9043H20.4496L16.2447 29.689L20.75 39.6135H17.9467L13.992 30.2591H13.9419V39.6135H11.439V20.9043Z" fill="black"/>
<mask id="mask2" mask-type="alpha" maskUnits="userSpaceOnUse" x="0" y="0" width="85" height="40">
<path fill-rule="evenodd" clip-rule="evenodd" d="M0 39.7691H84.9039V0.3479H0V39.7691Z" fill="white"/>
</mask>
<g mask="url(#mask2)">
<path fill-rule="evenodd" clip-rule="evenodd" d="M21.3008 39.6135H23.8041V20.9043H21.3008V39.6135Z" fill="black"/>
<path fill-rule="evenodd" clip-rule="evenodd" d="M25.3311 20.9043H28.7851L31.7386 36.4518H31.7887V20.9043H34.1415V39.6135H30.5372L27.5837 23.6511H27.5337V39.6135H25.3311V20.9043Z" fill="black"/>
<path fill-rule="evenodd" clip-rule="evenodd" d="M41.0752 25.8539V24.8946C41.0752 23.5732 40.4493 22.7701 39.4733 22.7701C38.322 22.7701 37.7461 23.8581 37.7461 25.8539V35.2859C37.7461 36.7885 38.4473 37.7471 39.4733 37.7471C40.1742 37.7471 40.7497 37.6438 41.0752 37.5659V32.0727H39.4236V29.896H43.5779V39.3023C42.6022 39.536 40.875 39.7691 39.4485 39.7691C36.2699 39.7691 35.2432 38.0327 35.2432 35.1304V25.6724C35.2432 22.1739 36.2699 20.7485 39.4985 20.7485C42.1762 20.7485 43.5779 21.7593 43.5779 24.143V25.8539H41.0752Z" fill="black"/>
<path fill-rule="evenodd" clip-rule="evenodd" d="M47.2079 37.4361H48.4093C50.2612 37.4361 50.6116 36.426 50.6116 33.2125V26.7864C50.6116 24.0135 50.3368 23.0806 48.2091 23.0806H47.2079V37.4361ZM44.7046 20.9043H48.7349C52.7893 20.9043 53.1142 22.3036 53.1142 27.7453V33.3165C53.1142 38.1106 52.2887 39.6135 48.3347 39.6135H44.7046V20.9043Z" fill="black"/>
<path fill-rule="evenodd" clip-rule="evenodd" d="M56.5697 35.2859C56.5697 36.8925 57.2699 37.7471 58.2962 37.7471C59.3482 37.7471 60.0483 36.8925 60.0483 35.2859V25.4651C60.0483 23.6251 59.4476 22.7701 58.2962 22.7701C57.1701 22.7701 56.5697 23.6251 56.5697 25.4651V35.2859ZM54.0664 25.672C54.0664 23.0546 54.8919 20.7485 58.2962 20.7485C61.5252 20.7485 62.5516 22.4845 62.5516 25.3868V34.8449C62.5516 37.4626 61.7255 39.7691 58.2962 39.7691C55.0928 39.7691 54.0664 38.0324 54.0664 35.1304V25.672Z" fill="black"/>
<path fill-rule="evenodd" clip-rule="evenodd" d="M63.5786 20.9043H67.5578L69.8602 35.1565H69.9103L72.2133 20.9043H76.0928V39.6135H73.7396V22.77H73.6899L71.1366 39.6135H68.6339L65.8306 22.77H65.7809V39.6135H63.5786V20.9043Z" fill="black"/>
<path fill-rule="evenodd" clip-rule="evenodd" d="M76.9443 34.1978H79.4476V35.7265C79.4476 36.9703 79.8985 37.7474 80.899 37.7474C82.2261 37.7474 82.5513 36.8152 82.5513 35.5971C82.5513 34.0166 82.4761 33.498 79.873 30.8288C78.2711 29.1707 76.9443 27.6674 76.9443 25.1279C76.9443 22.0702 78.3211 20.7488 81.0495 20.7488C82.4005 20.7488 83.3768 21.2152 83.9782 21.7853C84.4032 22.1999 84.7039 22.8476 84.7039 24.169V25.9314H82.3507V24.4545C82.3507 23.3923 81.9254 22.7703 80.9491 22.7703C79.9234 22.7703 79.4476 23.3662 79.4476 24.8173C79.4476 26.0872 79.6976 26.8643 82.0003 29.3519C84.4539 31.9947 84.9038 32.9022 84.9038 35.1564C84.9038 38.0851 83.8028 39.7693 80.8244 39.7693C78.5217 39.7693 76.9443 38.7582 76.9443 36.426V34.1978Z" fill="black"/>
</g>
</svg>
