<svg width="74" height="21" viewBox="0 0 74 21" fill="none" xmlns="http://www.w3.org/2000/svg">
<path fill-rule="evenodd" clip-rule="evenodd" d="M0 19.9501V0.400978H4.99026V1.9728C6.52524 0.690342 8.45968 -0.0079894 10.4549 6.89691e-05C13.043 -0.00720941 15.5002 1.14493 17.1591 3.14371C18.4241 4.67734 19.1578 6.65007 19.1578 9.99734V19.9501H13.9715V9.59007C13.9715 7.68098 13.5287 6.65007 12.814 5.92461C12.023 5.18877 10.9749 4.79759 9.89829 4.83643C8.04726 4.89298 6.31855 5.78016 5.18632 7.25461V19.9819L0 19.9501Z" fill="black"/>
<path fill-rule="evenodd" clip-rule="evenodd" d="M32.5156 0C27.8707 0.0103473 23.6979 2.85878 21.9716 7.19745C20.2453 11.5361 21.3119 16.4949 24.6665 19.7273C25.4672 20.4965 26.7064 20.5614 27.5822 19.88C30.4577 17.7342 34.39 17.7342 37.2655 19.88C38.1501 20.5846 39.4171 20.5192 40.2255 19.7273C43.5626 16.5126 44.638 11.5876 42.9473 7.26158C41.2566 2.9356 37.1351 0.0666194 32.5156 0ZM32.4523 17.1373C30.9347 17.1868 29.4639 16.6047 28.3866 15.528C27.3093 14.4513 26.7209 12.9754 26.76 11.4482C26.6909 9.36914 27.7539 7.41757 29.5327 6.35746C31.3116 5.29735 33.5234 5.29735 35.3023 6.35746C37.0812 7.41757 38.1441 9.36914 38.075 11.4482C38.1155 12.9691 37.5328 14.44 36.4635 15.5158C35.3942 16.5917 33.9324 17.178 32.4207 17.1373" fill="#AAAAAA"/>
<path fill-rule="evenodd" clip-rule="evenodd" d="M54.0329 19.95H50.1684L42.4585 0.400879H47.6448L51.8635 11.5754L56.0062 0.400879H60.3387L64.4435 11.5754L68.7064 0.400879H73.8864L66.1828 19.95H62.3183L58.1756 8.81997L54.0329 19.95Z" fill="black"/>
<path d="M71.0399 17.4683V17.8946H70.3885V19.9501H69.9141V17.8946H69.2563V17.4683H71.0399Z" fill="#293E40"/>
<path d="M72.6528 18.9574L73.5509 17.4683H73.8861V19.9501H73.4117V18.5692L72.8172 19.5428H72.4883L71.8938 18.5692V19.9501H71.4194V17.4683H71.7546L72.6528 18.9574Z" fill="#293E40"/>
</svg>
