<svg width="113" height="26" viewBox="0 0 113 26" fill="none" xmlns="http://www.w3.org/2000/svg">
<path fill-rule="evenodd" clip-rule="evenodd" d="M108.839 17.2514V15.179H104.186V13.0918H108.344V11.1469H104.186V9.2437H108.584V7.19883H101.853V17.2514H108.839ZM96.2311 10.9052C96.1219 11.0661 95.9827 11.1886 95.8116 11.2745C95.6412 11.3597 95.4522 11.4181 95.2434 11.4514C95.0347 11.4847 94.831 11.5007 94.6325 11.5007H93.4814V9.1578H94.7748C94.9542 9.1578 95.1413 9.1719 95.336 9.20075C95.5301 9.22896 95.705 9.28344 95.8614 9.36357C96.0178 9.44434 96.1462 9.55844 96.2451 9.70524C96.3447 9.85139 96.3945 10.0437 96.3945 10.2796C96.3945 10.5354 96.3396 10.7443 96.2311 10.9052ZM99.3217 17.2514L96.7054 12.9488C97.356 12.7508 97.8654 12.42 98.2332 11.9552C98.6009 11.4924 98.7841 10.9187 98.7841 10.2379C98.7841 9.65972 98.6762 9.17703 98.4592 8.78921C98.2421 8.40075 97.9522 8.08857 97.5896 7.85203C97.2264 7.61613 96.8165 7.4469 96.3594 7.34819C95.9016 7.24883 95.4331 7.19883 94.9523 7.19883H91.1339V17.2514H93.4954V13.2616H94.3196L96.4935 17.2514H99.3217ZM85.6755 13.4399C85.5344 13.8225 85.3365 14.1514 85.0817 14.4264C84.827 14.7008 84.5257 14.9155 84.1765 15.0725C83.8279 15.229 83.441 15.3065 83.0171 15.3065C82.5932 15.3065 82.2063 15.229 81.8577 15.0725C81.5085 14.9155 81.2091 14.7008 80.9595 14.4264C80.7099 14.1514 80.5139 13.8225 80.3728 13.4399C80.2317 13.0552 80.1608 12.6373 80.1608 12.1828C80.1608 11.7469 80.2291 11.3399 80.3657 10.9616C80.5024 10.5834 80.6977 10.2591 80.9524 9.98921C81.2072 9.7187 81.5085 9.50588 81.8577 9.35011C82.2063 9.19434 82.5932 9.11613 83.0171 9.11613C83.441 9.11613 83.8304 9.19434 84.1841 9.35011C84.5372 9.50588 84.8385 9.7187 85.0888 9.98921C85.3384 10.2591 85.5344 10.5834 85.6755 10.9616C85.8172 11.3399 85.8874 11.7469 85.8874 12.1828C85.8874 12.6373 85.8172 13.0552 85.6755 13.4399ZM88.0657 10.0027C87.7918 9.35524 87.4126 8.80331 86.9274 8.34883C86.4416 7.89434 85.8638 7.54434 85.1947 7.29883C84.5257 7.05267 83.7998 6.92896 83.0171 6.92896C82.2344 6.92896 81.5111 7.05267 80.8465 7.29883C80.1819 7.54434 79.6067 7.89434 79.1215 8.34883C78.6356 8.80331 78.2564 9.35524 77.9825 10.0027C77.7093 10.6514 77.5727 11.3783 77.5727 12.1828C77.5727 12.9777 77.7093 13.7046 77.9825 14.3616C78.2564 15.0206 78.6356 15.5828 79.1215 16.052C79.6067 16.52 80.1819 16.8828 80.8465 17.1379C81.5111 17.3937 82.2344 17.5219 83.0171 17.5219C83.7998 17.5219 84.5257 17.3937 85.1947 17.1379C85.8638 16.8828 86.4416 16.52 86.9274 16.052C87.4126 15.5828 87.7918 15.0206 88.0657 14.3616C88.3389 13.7046 88.4756 12.9777 88.4756 12.1828C88.4756 11.3783 88.3389 10.6514 88.0657 10.0027ZM76.1164 15.8597L74.4336 14.27C74.2165 14.5725 73.9292 14.8187 73.5711 15.0078C73.2123 15.1982 72.7928 15.2918 72.3121 15.2918C71.8971 15.2918 71.5154 15.2161 71.1668 15.0655C70.8176 14.9142 70.5188 14.7027 70.2692 14.4334C70.0189 14.1636 69.8235 13.8399 69.6825 13.461C69.5407 13.0822 69.4699 12.6661 69.4699 12.2116C69.4699 11.7661 69.5407 11.3572 69.6825 10.9834C69.8235 10.6097 70.0215 10.2854 70.2762 10.0097C70.5303 9.73537 70.8348 9.51998 71.1878 9.36357C71.5415 9.2078 71.9303 9.1296 72.3549 9.1296C72.7411 9.1296 73.1184 9.20588 73.4862 9.35716C73.8539 9.50908 74.1507 9.74049 74.3767 10.0533L76.0175 8.40588C75.5929 7.92254 75.0394 7.55588 74.3557 7.30524C73.6719 7.05524 72.9767 6.92896 72.27 6.92896C71.5064 6.92896 70.7946 7.05267 70.1345 7.29883C69.4743 7.54434 68.8998 7.8969 68.4095 8.35588C67.9191 8.81549 67.5348 9.37126 67.2571 10.0251C66.9788 10.677 66.8396 11.4072 66.8396 12.2116C66.8396 12.9969 66.9762 13.7161 67.2501 14.3693C67.5233 15.0225 67.9 15.5828 68.3814 16.052C68.8621 16.52 69.4296 16.8828 70.0853 17.1379C70.7403 17.3937 71.4547 17.5219 72.2278 17.5219C73.0756 17.5219 73.8251 17.3719 74.4757 17.0745C75.1262 16.7764 75.6734 16.3713 76.1164 15.8597ZM64.577 17.2514V15.179H59.9249V13.0918H64.0823V11.1469H59.9249V9.2437H64.3229V7.19883H57.5915V17.2514H64.577ZM54.9331 9.2719V7.19883H46.8584V9.2719H49.6866V17.2514H52.1049V9.2719H54.9331ZM41.7676 17.2514H44.2V7.19883H41.7676V17.2514ZM38.8264 8.17896C38.3834 7.7719 37.8675 7.46357 37.2783 7.25524C36.689 7.04754 36.1119 6.94306 35.5462 6.94306C35.0745 6.94306 34.6078 7.00331 34.1462 7.12062C33.684 7.23985 33.2696 7.42639 32.9019 7.68152C32.5335 7.93729 32.2367 8.26357 32.0107 8.66165C31.7847 9.05908 31.6717 9.53729 31.6717 10.0956C31.6717 10.5501 31.7438 10.9354 31.8907 11.2533C32.0369 11.57 32.2297 11.8399 32.4703 12.0616C32.7104 12.2841 32.9843 12.4668 33.2907 12.6091C33.5972 12.7508 33.91 12.8738 34.2311 12.9777C34.5605 13.0822 34.8555 13.179 35.1147 13.2687C35.3739 13.3591 35.5903 13.4578 35.7652 13.5668C35.9395 13.6764 36.0742 13.7963 36.1681 13.929C36.2625 14.0616 36.3098 14.2225 36.3098 14.4116C36.3098 14.611 36.2721 14.7809 36.1962 14.9225C36.1208 15.0655 36.0199 15.179 35.8923 15.2636C35.7652 15.3488 35.6165 15.411 35.4473 15.4482C35.2775 15.486 35.1025 15.5046 34.9238 15.5046C34.528 15.5046 34.1296 15.4033 33.7287 15.2001C33.3277 14.9963 33.0053 14.7437 32.7602 14.4399L31.1763 16.0591C31.6193 16.5225 32.1754 16.8809 32.8451 17.1315C33.5142 17.3815 34.2068 17.5072 34.9238 17.5072C35.4141 17.5072 35.8903 17.4411 36.3519 17.3091C36.8135 17.1764 37.224 16.9725 37.5822 16.6982C37.9403 16.4232 38.2257 16.0751 38.4376 15.6546C38.6502 15.2334 38.7562 14.7334 38.7562 14.1565C38.7562 13.6552 38.6573 13.2354 38.4593 12.9001C38.2614 12.5642 38.0112 12.2822 37.7092 12.0552C37.4079 11.827 37.0733 11.6456 36.7056 11.5078C36.3379 11.3706 35.9842 11.2463 35.6452 11.1315C35.409 11.0559 35.197 10.9834 35.0087 10.9116C34.8197 10.8405 34.6576 10.7623 34.5209 10.677C34.3837 10.5918 34.2803 10.4924 34.2094 10.379C34.1392 10.2661 34.1034 10.1245 34.1034 9.95331C34.1034 9.75524 34.1481 9.59178 34.2381 9.46421C34.3275 9.33537 34.4379 9.23152 34.5701 9.15075C34.7023 9.07062 34.851 9.01613 35.0157 8.98793C35.1804 8.95908 35.3432 8.94498 35.5035 8.94498C35.815 8.94498 36.1374 9.02319 36.4719 9.17896C36.8065 9.33537 37.0778 9.54626 37.2853 9.81165L38.8264 8.17896Z" fill="black"/>
<path fill-rule="evenodd" clip-rule="evenodd" d="M11.5439 18.3832C12.492 18.2602 13.4075 17.9711 14.2368 17.5082C16.2861 16.3634 17.4697 14.3961 17.5693 11.9672L17.5783 11.757H20.4141C20.2354 10.3172 19.6914 8.98901 18.8806 7.86914L15.979 9.73837C16.862 11.1275 16.9756 12.6672 16.3053 14.205C15.5117 16.0268 13.6405 17.623 11.5439 18.3832Z" fill="black"/>
<path fill-rule="evenodd" clip-rule="evenodd" d="M20.4568 12.1951H17.9944C17.8284 14.6521 16.5445 16.7207 14.4493 17.8912C13.2529 18.5598 11.8918 18.8919 10.5019 18.8919C9.42491 18.8919 8.33066 18.6919 7.28174 18.2944C8.54198 19.0829 9.95799 19.5149 11.4251 19.5201H11.4474C14.0962 19.5201 16.4743 18.1124 17.8118 15.7534L17.9248 15.5528L19.5726 16.6015C20.1522 15.4605 20.481 14.1688 20.481 12.8015C20.481 12.5976 20.4708 12.3957 20.4568 12.1951Z" fill="black"/>
<path fill-rule="evenodd" clip-rule="evenodd" d="M11.4476 19.9581H11.424C8.78473 19.9504 6.30511 18.6376 4.54053 16.3799C5.88121 19.2293 8.77069 21.2062 12.1115 21.2062C15.2091 21.2062 17.9167 19.5062 19.364 16.9882L18.0756 16.1677C16.6405 18.5466 14.1806 19.9581 11.4476 19.9581Z" fill="black"/>
<mask id="mask0" mask-type="alpha" maskUnits="userSpaceOnUse" x="0" y="0" width="25" height="25">
<path fill-rule="evenodd" clip-rule="evenodd" d="M0.000244141 0.640869H24.2231V24.9627H0.000244141V0.640869Z" fill="white"/>
</mask>
<g mask="url(#mask0)">
<path fill-rule="evenodd" clip-rule="evenodd" d="M12.1117 21.6438C7.2482 21.6438 3.30533 17.6849 3.30533 12.8015C3.30533 7.91883 7.2482 3.95921 12.1117 3.95921C16.9751 3.95921 20.918 7.91883 20.918 12.8015C20.918 17.6849 16.9751 21.6438 12.1117 21.6438ZM12.1117 0.640625C5.42297 0.640625 0.000244141 6.0855 0.000244141 12.8015C0.000244141 19.5182 5.42297 24.9631 12.1117 24.9631C18.8004 24.9631 24.2231 19.5182 24.2231 12.8015C24.2231 6.0855 18.8004 0.640625 12.1117 0.640625Z" fill="black"/>
</g>
<path fill-rule="evenodd" clip-rule="evenodd" d="M111.438 8.14476V7.82552H111.62C111.673 7.82552 111.723 7.83642 111.77 7.85629C111.818 7.87681 111.843 7.91783 111.843 7.97873C111.843 8.0454 111.816 8.09027 111.765 8.11206C111.712 8.13386 111.657 8.14476 111.599 8.14476H111.438ZM111.238 8.7736H111.438V8.30629H111.582L111.843 8.7736H112.086L111.786 8.2845C111.864 8.26719 111.927 8.23258 111.973 8.18193C112.019 8.13129 112.043 8.06463 112.043 7.98258C112.043 7.92168 112.031 7.87104 112.008 7.83001C111.985 7.78899 111.954 7.75629 111.915 7.73001C111.875 7.70373 111.831 7.6845 111.782 7.67232C111.732 7.66142 111.682 7.65501 111.629 7.65501H111.238V8.7736ZM110.855 7.89091C110.898 7.78899 110.958 7.70052 111.033 7.62488C111.108 7.5486 111.197 7.48963 111.299 7.4454C111.4 7.40181 111.509 7.38001 111.625 7.38001C111.741 7.38001 111.85 7.40181 111.951 7.4454C112.053 7.48963 112.141 7.5486 112.217 7.62488C112.292 7.70052 112.352 7.78899 112.395 7.89091C112.439 7.99283 112.461 8.10309 112.461 8.21911C112.461 8.33258 112.439 8.44027 112.395 8.54219C112.352 8.64411 112.292 8.73386 112.217 8.81078C112.141 8.88835 112.053 8.9486 111.951 8.99219C111.85 9.03578 111.741 9.05822 111.625 9.05822C111.509 9.05822 111.4 9.03578 111.299 8.99219C111.197 8.9486 111.108 8.88835 111.033 8.81078C110.958 8.73386 110.898 8.64411 110.855 8.54219C110.812 8.44027 110.789 8.33258 110.789 8.21911C110.789 8.10309 110.812 7.99283 110.855 7.89091ZM110.711 8.60373C110.764 8.72296 110.835 8.82681 110.925 8.91591C111.015 9.00501 111.119 9.07488 111.24 9.12552C111.361 9.17681 111.489 9.20181 111.625 9.20181C111.762 9.20181 111.89 9.17681 112.011 9.12552C112.131 9.07488 112.236 9.00501 112.326 8.91591C112.415 8.82681 112.487 8.72296 112.539 8.60373C112.591 8.48386 112.617 8.35565 112.617 8.21911C112.617 8.08193 112.591 7.95309 112.539 7.83258C112.487 7.71142 112.415 7.60629 112.326 7.51783C112.236 7.42873 112.131 7.35822 112.011 7.30565C111.89 7.25309 111.762 7.22681 111.625 7.22681C111.489 7.22681 111.361 7.25309 111.24 7.30565C111.119 7.35822 111.015 7.42873 110.925 7.51783C110.835 7.60629 110.764 7.71142 110.711 7.83258C110.659 7.95309 110.633 8.08193 110.633 8.21911C110.633 8.35565 110.659 8.48386 110.711 8.60373Z" fill="#241F21"/>
</svg>
