<svg width="130" height="20" viewBox="0 0 130 20" fill="none" xmlns="http://www.w3.org/2000/svg">
<path fill-rule="evenodd" clip-rule="evenodd" d="M29.1338 14.704L30.1913 13.4156C31.149 14.2646 32.1063 14.7477 33.3498 14.7477C34.436 14.7477 35.1223 14.2353 35.1223 13.4596V13.4298C35.1223 12.6985 34.7217 12.3027 32.864 11.864C30.7341 11.3372 29.5338 10.693 29.5338 8.80403V8.77482C29.5338 7.01824 30.9633 5.80298 32.9498 5.80298C34.4075 5.80298 35.5654 6.25666 36.58 7.09114L35.6366 8.45272C34.7364 7.76482 33.8359 7.39903 32.9213 7.39903C31.892 7.39903 31.2919 7.94008 31.2919 8.6135V8.64298C31.2919 9.43403 31.7492 9.78535 33.6643 10.2535C35.7795 10.7803 36.8801 11.5561 36.8801 13.2546V13.284C36.8801 15.2017 35.4082 16.3438 33.3071 16.3438C31.778 16.3438 30.3341 15.8022 29.1338 14.704Z" fill="#231F20"/>
<path fill-rule="evenodd" clip-rule="evenodd" d="M38.0342 13.3865V8.46777H39.7635V12.8596C39.7635 14.0601 40.3495 14.7478 41.3785 14.7478C42.3792 14.7478 43.0793 14.0304 43.0793 12.8304V8.46777H44.8088V16.1972H43.0793V15.4001C42.4717 15.9986 41.8933 16.3583 40.7213 16.3583C39.0205 16.3583 38.0342 15.1872 38.0342 13.3865Z" fill="#231F20"/>
<path fill-rule="evenodd" clip-rule="evenodd" d="M46.6577 8.46766H48.3873V9.75608C48.8585 8.59924 49.7307 8.26213 51.0597 8.32082V9.89161H50.9598C49.445 9.89161 48.3873 10.929 48.3873 13.2545V16.1971H46.6577V8.46766Z" fill="#231F20"/>
<path fill-rule="evenodd" clip-rule="evenodd" d="M51.6772 8.46753H53.5348L55.5644 13.846L57.6084 8.46753H59.4236L56.3364 16.2557H54.7785L51.6772 8.46753Z" fill="#231F20"/>
<path fill-rule="evenodd" clip-rule="evenodd" d="M65.0242 11.7911C64.9099 10.6485 64.2525 9.75611 63.1092 9.75611C62.0512 9.75611 61.3079 10.5901 61.1507 11.7911H65.0242ZM59.436 12.3614V12.3322C59.436 10.1219 60.9652 8.30664 63.1231 8.30664C65.5245 8.30664 66.7392 10.2393 66.7392 12.464C66.7392 12.6248 66.725 12.7859 66.7106 12.9619H61.1651C61.3511 14.2209 62.2228 14.9237 63.3378 14.9237C64.1808 14.9237 64.7815 14.6019 65.3816 14.0011L66.3962 14.9237C65.6817 15.8022 64.6954 16.3724 63.3091 16.3724C61.1224 16.3724 59.436 14.7477 59.436 12.3614Z" fill="#231F20"/>
<path fill-rule="evenodd" clip-rule="evenodd" d="M75.9048 5.94971H77.7769L80.8211 11.1771L83.8654 5.94971H85.7378V16.1971H83.9802V8.84865L80.8211 14.061H80.7641L77.6338 8.87708V16.1971H75.9048V5.94971Z" fill="#231F20"/>
<path fill-rule="evenodd" clip-rule="evenodd" d="M93.2936 12.3764V12.3472C93.2936 10.9856 92.3359 9.85822 90.978 9.85822C89.5917 9.85822 88.7059 10.9706 88.7059 12.3174V12.3472C88.7059 13.694 89.6634 14.8359 91.0068 14.8359C92.4075 14.8359 93.2936 13.7085 93.2936 12.3764ZM86.9766 12.3764V12.3472C86.9766 10.1359 88.6912 8.30664 91.0068 8.30664C93.3222 8.30664 95.0229 10.1074 95.0229 12.3174V12.3472C95.0229 14.543 93.3075 16.3724 90.978 16.3724C88.6768 16.3724 86.9766 14.5724 86.9766 12.3764Z" fill="#231F20"/>
<path fill-rule="evenodd" clip-rule="evenodd" d="M104.696 5.51001H106.426V11.8932L109.556 8.46764H111.657L108.656 11.6147L111.757 16.1971H109.756L107.484 12.8595L106.426 13.9866V16.1971H104.696V5.51001Z" fill="#231F20"/>
<path fill-rule="evenodd" clip-rule="evenodd" d="M117.205 11.7911C117.091 10.6485 116.433 9.75611 115.29 9.75611C114.232 9.75611 113.489 10.5901 113.332 11.7911H117.205ZM111.617 12.3614V12.3322C111.617 10.1219 113.146 8.30664 115.304 8.30664C117.705 8.30664 118.92 10.2393 118.92 12.464C118.92 12.6248 118.906 12.7859 118.892 12.9619H113.346C113.532 14.2209 114.404 14.9237 115.519 14.9237C116.362 14.9237 116.962 14.6019 117.563 14.0011L118.577 14.9237C117.862 15.8022 116.877 16.3724 115.49 16.3724C113.303 16.3724 111.617 14.7477 111.617 12.3614Z" fill="#231F20"/>
<path fill-rule="evenodd" clip-rule="evenodd" d="M72.8132 8.46753L70.7252 13.7383L68.6501 8.46753H66.8491L69.8219 16.0181L68.2701 19.9354H70.0709L74.6142 8.46753H72.8132Z" fill="#231F20"/>
<path fill-rule="evenodd" clip-rule="evenodd" d="M128.718 8.40112C128.926 8.40112 129.13 8.45718 129.326 8.56665C129.526 8.67428 129.682 8.83218 129.792 9.03612C129.903 9.23823 129.959 9.45007 129.959 9.67349C129.959 9.89165 129.903 10.1019 129.793 10.3035C129.683 10.5056 129.53 10.6619 129.333 10.7751C129.139 10.8856 128.933 10.9416 128.718 10.9416C128.505 10.9416 128.297 10.8856 128.1 10.7751C127.901 10.6619 127.75 10.5056 127.639 10.3035C127.531 10.1019 127.476 9.89165 127.476 9.67349C127.476 9.45007 127.531 9.23823 127.644 9.03612C127.756 8.83218 127.908 8.67428 128.107 8.56665C128.305 8.45718 128.509 8.40112 128.718 8.40112ZM128.718 8.61139C128.543 8.61139 128.373 8.65744 128.21 8.74797C128.043 8.84033 127.914 8.97112 127.82 9.14007C127.729 9.31165 127.682 9.48954 127.682 9.67349C127.682 9.85454 127.727 10.0309 127.818 10.1998C127.911 10.3664 128.038 10.4985 128.204 10.5911C128.368 10.6845 128.54 10.7314 128.718 10.7314C128.897 10.7314 129.068 10.6845 129.232 10.5911C129.397 10.4985 129.524 10.3664 129.616 10.1998C129.705 10.0309 129.751 9.85454 129.751 9.67349C129.751 9.48954 129.705 9.31165 129.612 9.14007C129.521 8.97112 129.393 8.84033 129.225 8.74797C129.06 8.65744 128.889 8.61139 128.718 8.61139Z" fill="#231F20"/>
<path fill-rule="evenodd" clip-rule="evenodd" d="M128.793 9.66504C128.968 9.66504 129.079 9.57162 129.079 9.42714V9.42293C129.079 9.2703 128.972 9.18714 128.791 9.18714H128.436V9.66504H128.793ZM128.191 8.95898H128.811C128.986 8.95898 129.123 9.01214 129.213 9.10162C129.286 9.17872 129.328 9.28477 129.328 9.40872V9.41293C129.328 9.64688 129.191 9.78714 128.998 9.84425L129.373 10.3832H129.083L128.742 9.88688H128.436V10.3832H128.191V8.95898Z" fill="#231F20"/>
<path fill-rule="evenodd" clip-rule="evenodd" d="M124.995 8.46753L122.907 13.7383L120.832 8.46753H119.031L122.004 16.0181L120.452 19.9354H122.253L126.796 8.46753H124.995Z" fill="#231F20"/>
<path fill-rule="evenodd" clip-rule="evenodd" d="M102.933 11.2782V16.1969H101.204V11.8051C101.204 10.6048 100.618 9.9169 99.589 9.9169C98.5884 9.9169 97.888 10.6343 97.888 11.8343V16.1969H96.1587V8.46743H97.888V9.26454C98.4961 8.66611 99.0742 8.30664 100.246 8.30664C101.947 8.30664 102.933 9.47743 102.933 11.2782Z" fill="#231F20"/>
<path fill-rule="evenodd" clip-rule="evenodd" d="M22.4533 14.3321C22.2259 14.3321 22.0188 14.2426 21.8629 14.0997C21.9158 13.6313 21.9515 13.1571 21.9572 12.6755C22.0995 12.5782 22.2703 12.5187 22.4533 12.5187C22.9396 12.5187 23.3378 12.9261 23.3378 13.4274C23.3378 13.9305 22.9396 14.3321 22.4533 14.3321ZM2.9417 14.3321C2.4551 14.3321 2.05713 13.9305 2.05713 13.4274C2.05713 12.9261 2.4551 12.5187 2.9417 12.5187C3.12462 12.5187 3.29547 12.5782 3.43781 12.6755C3.44346 13.1571 3.47891 13.6313 3.53209 14.0997C3.37615 14.2426 3.16881 14.3321 2.9417 14.3321ZM22.3955 10.3534C22.1468 10.3534 21.9073 10.3879 21.6779 10.445C20.7964 6.87368 17.9323 4.11 14.3547 3.45658C14.1952 3.42711 14.0508 3.40526 13.8887 3.38421C13.9154 2.48974 13.9562 1.45553 15.2413 0.524737L15.0379 0C15.0379 0 12.534 0.797105 12.2436 2.99211C12.1188 2.39474 10.9508 1.64763 10.3728 1.50579L10.0853 1.98079C10.0853 1.98079 10.8517 2.37368 11.0384 3.45684H11.0382H11.0384C7.46138 4.11105 4.59804 6.87421 3.71708 10.445C3.48765 10.3879 3.2482 10.3534 2.99925 10.3534C1.34599 10.3534 0 11.7289 0 13.4276C0 15.1226 1.34599 16.5005 2.99925 16.5005C3.38668 16.5005 3.75587 16.4216 4.09526 16.2858C4.35397 16.9442 4.68051 17.5689 5.07 18.1429L7.55978 16.4237L7.53846 16.3953C6.87972 15.5284 6.47713 14.2521 6.40957 12.9818C6.33506 11.5808 6.66879 10.1889 7.54206 9.37079C9.34356 7.80079 11.3038 8.51632 12.5324 10.0218H12.8625C14.0911 8.51632 16.0514 7.80079 17.8529 9.37079C18.7262 10.1889 19.0599 11.5808 18.9851 12.9818C18.9176 14.2521 18.515 15.5284 17.8562 16.3953L17.8352 16.4237L20.325 18.1429C20.7142 17.5689 21.0407 16.9442 21.2994 16.2858C21.6391 16.4216 22.0083 16.5005 22.3955 16.5005C24.0487 16.5005 25.395 15.1226 25.395 13.4276C25.395 11.7289 24.0487 10.3534 22.3955 10.3534Z" fill="#231F20"/>
</svg>
