<svg width="121" height="42" viewBox="0 0 121 42" fill="none" xmlns="http://www.w3.org/2000/svg">
<path fill-rule="evenodd" clip-rule="evenodd" d="M82.5867 35.5956C82.3556 35.6421 81.948 35.7216 81.5852 35.7216C80.3422 35.7216 79.6382 35.1785 79.6382 33.6987C79.6382 32.1619 80.5734 31.6189 81.7503 31.6189C82.113 31.6189 82.3556 31.6876 82.542 31.7448V32.4709C82.4046 32.4307 82.0203 32.3619 81.734 32.3619C81.0515 32.3619 80.5124 32.4709 80.5124 33.6702C80.5124 34.8536 81.0738 34.9848 81.6901 34.9848C82.0203 34.9848 82.2893 34.916 82.5867 34.8536V35.5956Z" fill="#231F20"/>
<path fill-rule="evenodd" clip-rule="evenodd" d="M86.0858 33.6649C86.0858 32.6022 85.7505 32.2762 85.2055 32.2762C84.6501 32.2762 84.3149 32.6593 84.2977 33.6649C84.2814 34.6705 84.6338 35.059 85.1892 35.059C85.7394 35.059 86.0858 34.7276 86.0858 33.6649ZM83.4233 33.6703C83.4233 32.1502 84.1326 31.6189 85.2003 31.6189C86.2672 31.6189 86.9601 32.1851 86.9601 33.6703C86.9601 35.1501 86.262 35.7216 85.1892 35.7216C84.1224 35.7216 83.4233 35.1678 83.4233 33.6703Z" fill="#231F20"/>
<path fill-rule="evenodd" clip-rule="evenodd" d="M89.1118 33.5961C89.5192 33.5961 89.882 33.4702 89.882 32.9621C89.882 32.4592 89.5966 32.3735 89.123 32.3735H88.8538V33.5961H89.1118ZM88.0234 31.676H89.0903C90.2671 31.676 90.7511 32.0019 90.7511 32.9271C90.7511 33.6817 90.3773 33.8819 89.9371 34.0193V34.0873L90.0532 34.1104C90.4545 34.265 90.691 35.0589 90.9386 35.5563V35.6643H90.0196C89.8381 35.133 89.6457 34.3275 89.2605 34.2132H88.8538V35.6643H88.0234V31.676Z" fill="#231F20"/>
<path fill-rule="evenodd" clip-rule="evenodd" d="M92.7487 33.6817H93.0513C93.5353 33.6817 93.777 33.5218 93.777 33.0245C93.777 32.5217 93.5353 32.3788 93.0901 32.3788H92.7487V33.6817ZM91.9185 31.676H92.9637C94.0967 31.676 94.646 31.9448 94.646 32.9674C94.646 33.9908 93.9919 34.2872 93.1667 34.2872H92.7487V35.6643H91.9185V31.676Z" fill="#231F20"/>
<path fill-rule="evenodd" clip-rule="evenodd" d="M98.0247 33.6649C98.0247 32.6022 97.6894 32.2762 97.1445 32.2762C96.5891 32.2762 96.2539 32.6593 96.2367 33.6649C96.2203 34.6705 96.5728 35.059 97.1281 35.059C97.6783 35.059 98.0247 34.7276 98.0247 33.6649ZM95.3623 33.6703C95.3623 32.1502 96.0716 31.6189 97.1392 31.6189C98.2061 31.6189 98.899 32.1851 98.899 33.6703C98.899 35.1501 98.201 35.7216 97.1281 35.7216C96.0613 35.7216 95.3623 35.1678 95.3623 33.6703Z" fill="#231F20"/>
<path fill-rule="evenodd" clip-rule="evenodd" d="M101.051 33.5961C101.458 33.5961 101.821 33.4702 101.821 32.9621C101.821 32.4592 101.536 32.3735 101.062 32.3735H100.793V33.5961H101.051ZM99.9624 31.676H101.029C102.206 31.676 102.69 32.0019 102.69 32.9271C102.69 33.6817 102.316 33.8819 101.876 34.0193V34.0873L101.992 34.1104C102.393 34.265 102.63 35.0589 102.877 35.5563V35.6643H101.959C101.777 35.133 101.585 34.3275 101.199 34.2132H100.793V35.6643H99.9624V31.676Z" fill="#231F20"/>
<path fill-rule="evenodd" clip-rule="evenodd" d="M105.761 34.1962L105.376 32.8191L105.332 32.5958H105.277L105.232 32.8191L104.831 34.1962H105.761ZM103.533 35.5733L104.903 31.6475H105.717L107.153 35.5733V35.6644H106.234L105.915 34.7731H104.71L104.429 35.6644H103.533V35.5733Z" fill="#231F20"/>
<path fill-rule="evenodd" clip-rule="evenodd" d="M108.567 32.3619L107.489 32.3904V31.676H110.481V32.3904L109.397 32.3619V35.6644H108.567V32.3619Z" fill="#231F20"/>
<mask id="mask0" mask-type="alpha" maskUnits="userSpaceOnUse" x="0" y="0" width="121" height="42">
<path fill-rule="evenodd" clip-rule="evenodd" d="M0 41.9002H121V0.0324707H0V41.9002Z" fill="white"/>
</mask>
<g mask="url(#mask0)">
<path fill-rule="evenodd" clip-rule="evenodd" d="M111.362 35.6644H112.193V31.676H111.362V35.6644Z" fill="#231F20"/>
<path fill-rule="evenodd" clip-rule="evenodd" d="M115.839 33.6649C115.839 32.6022 115.504 32.2762 114.959 32.2762C114.405 32.2762 114.068 32.6593 114.052 33.6649C114.036 34.6705 114.387 35.059 114.943 35.059C115.493 35.059 115.839 34.7276 115.839 33.6649ZM113.178 33.6703C113.178 32.1502 113.887 31.6189 114.954 31.6189C116.021 31.6189 116.714 32.1851 116.714 33.6703C116.714 35.1501 116.015 35.7216 114.943 35.7216C113.876 35.7216 113.178 35.1678 113.178 33.6703Z" fill="#231F20"/>
<path fill-rule="evenodd" clip-rule="evenodd" d="M117.777 31.676H118.503L119.922 33.7729L120.12 34.1158H120.17V31.676H121V35.6644H120.291L118.833 33.4871L118.668 33.196H118.608V35.6644H117.777V31.676Z" fill="#231F20"/>
</g>
<path fill-rule="evenodd" clip-rule="evenodd" d="M24.7634 5.33325L20.3665 22.2819L15.9052 5.33325H12.3815L7.95261 22.2819L3.55608 5.33325H0L6.17452 28.6666H9.76301L14.192 11.718L18.5565 28.6666H22.1445L28.3191 5.33325H24.7634Z" fill="#231F20"/>
<path fill-rule="evenodd" clip-rule="evenodd" d="M30.1924 4.63416L33.7754 4.32959V10.1157L33.7101 12.2814H33.8408C35.5017 11.6384 36.8376 11.3338 38.4662 11.3338C41.3654 11.3338 43.3193 12.6878 43.3193 17.8646V28.1858H39.7363V18.169C39.7363 15.0562 38.2706 14.6502 36.6097 14.6502C35.567 14.6502 34.6875 14.8873 33.7754 15.1579V28.1858H30.1924V4.63416Z" fill="#231F20"/>
<mask id="mask1" mask-type="alpha" maskUnits="userSpaceOnUse" x="0" y="0" width="121" height="42">
<path fill-rule="evenodd" clip-rule="evenodd" d="M0 41.9002H121V0.0324707H0V41.9002Z" fill="white"/>
</mask>
<g mask="url(#mask1)">
<path fill-rule="evenodd" clip-rule="evenodd" d="M46.445 28.1856H50.028V11.5708H46.445V28.1856ZM48.2365 4.87061C50.0934 4.87061 50.3865 5.98735 50.3865 7.23947C50.3865 8.49148 49.9955 9.64224 48.2365 9.64224C46.4777 9.64224 46.1191 8.49148 46.1191 7.23947C46.1191 5.98735 46.445 4.87061 48.2365 4.87061Z" fill="#231F20"/>
<path fill-rule="evenodd" clip-rule="evenodd" d="M53.0566 11.5709H55.4998L55.9885 12.9243H56.2168C57.1611 12.0786 58.659 11.3337 60.6139 11.3337C60.8416 11.3337 61.1022 11.3337 61.3627 11.3677V15.0221C60.7119 14.9212 60.0277 14.8194 59.3434 14.8194C58.3659 14.8194 57.5844 15.0561 56.6398 15.4961V28.1857H53.0566V11.5709Z" fill="#231F20"/>
<path fill-rule="evenodd" clip-rule="evenodd" d="M62.8931 28.1858V4.63416L66.4762 4.32959V28.1858H62.8931Z" fill="#231F20"/>
<path fill-rule="evenodd" clip-rule="evenodd" d="M95.3342 19.9622C95.3342 16.816 94.8451 14.2442 91.979 14.2442C89.0802 14.2442 88.3632 16.7141 88.3632 19.9622C88.3632 22.9738 88.9496 25.5798 91.8165 25.5798C94.6826 25.5798 95.3342 23.1096 95.3342 19.9622ZM91.9464 11.3337C97.0278 11.3337 98.9826 14.4469 98.9826 19.9622C98.9826 25.1395 97.1584 28.5241 91.881 28.5241C86.6044 28.5241 84.7476 25.1395 84.7476 19.9622C84.7476 14.4469 86.8649 11.3337 91.9464 11.3337Z" fill="#231F20"/>
<path fill-rule="evenodd" clip-rule="evenodd" d="M111.4 19.9622C111.4 16.816 110.911 14.2442 108.045 14.2442C105.146 14.2442 104.429 16.7141 104.429 19.9622C104.429 22.9738 105.016 25.5798 107.882 25.5798C110.749 25.5798 111.4 23.1096 111.4 19.9622ZM108.012 11.3337C113.094 11.3337 115.049 14.4469 115.049 19.9622C115.049 25.1395 113.224 28.5241 107.947 28.5241C102.67 28.5241 100.813 25.1395 100.813 19.9622C100.813 14.4469 102.931 11.3337 108.012 11.3337Z" fill="#231F20"/>
<path fill-rule="evenodd" clip-rule="evenodd" d="M117.368 28.1858V4.63416L120.951 4.32959V28.1858H117.368Z" fill="#231F20"/>
<path fill-rule="evenodd" clip-rule="evenodd" d="M72.9909 25.1064C74.0001 25.1395 74.5545 25.1734 75.5965 25.1734C77.8109 25.1734 79.2776 23.9553 79.2776 19.1158C79.2776 15.7999 77.9743 14.9212 75.6291 14.9212C74.717 14.9212 73.8702 15.089 72.9909 15.3945V25.1064ZM69.4077 11.5704H72.1114L72.4046 12.7886C73.48 12.1794 75.4657 11.3337 77.2582 11.3337C80.5146 11.3337 82.8924 13.804 82.8924 19.7249C82.8924 25.5458 80.3839 28.4224 76.2154 28.4224C74.681 28.4224 72.9909 28.0839 72.9909 28.0839V35.6972L69.4077 36.1036V11.5704Z" fill="#231F20"/>
<path fill-rule="evenodd" clip-rule="evenodd" d="M87.1456 1.36182C84.4662 -1.8634 75.964 0.97155 66.476 7.79341V9.51252C74.8319 3.34221 82.1979 0.495085 84.3074 3.03454C86.9415 6.20509 80.3892 16.5757 69.6704 26.1852C58.951 35.7953 48.1221 41.0059 45.4885 37.8352C44.1206 36.1883 45.2359 32.5995 48.1221 28.1857H46.4444C42.8709 33.722 41.5313 38.3734 43.366 40.5821C46.7109 44.609 59.2226 39.0999 71.309 28.2652C83.3941 17.4304 90.4901 5.38833 87.1456 1.36182Z" fill="#231F20"/>
</g>
</svg>
