<svg width="102" height="38" viewBox="0 0 102 38" fill="none" xmlns="http://www.w3.org/2000/svg">
<path fill-rule="evenodd" clip-rule="evenodd" d="M35.7501 7.8428C35.308 7.14319 34.3184 6.93742 33.2025 7.0403C32.3182 7.12261 31.6234 7.43127 31.4761 7.53415C31.2866 7.65761 31.2234 7.8428 31.2445 7.98684C31.2866 8.3778 31.6024 8.68646 31.3287 10.2297C31.1813 11.1145 29.897 18.1107 29.897 18.1107C29.118 18.5222 28.2758 18.8309 27.6652 18.8309C26.6125 18.8309 26.0651 18.3988 26.3388 16.8143C26.6125 15.3328 27.5599 10.0445 27.5599 10.0445C27.7284 9.098 27.7284 8.33665 27.4126 7.86338C26.9704 7.16376 25.9809 6.958 24.865 7.06088C23.9807 7.14319 23.2859 7.45184 23.1385 7.55473C22.949 7.67819 22.8858 7.86338 22.9069 8.00742C22.949 8.39838 23.2648 8.70704 22.9911 10.2297C22.4858 12.9665 21.77 16.9584 21.6226 17.8432C21.0752 20.9092 22.0858 23.1518 25.1597 23.1518C25.8756 23.1518 27.7284 22.6994 29.3706 21.9172C29.4127 22.1644 29.4759 22.3701 29.5812 22.5553C30.4233 23.8928 33.2236 23.3167 33.8973 22.864C34.0868 22.7403 34.1079 22.5553 34.1079 22.4113C34.0658 22.0201 33.7289 21.7115 34.0026 20.1682C34.15 19.2836 35.8554 10.0445 35.8554 10.0445C36.0659 9.07742 36.0449 8.31607 35.7501 7.8428Z" fill="black"/>
<path fill-rule="evenodd" clip-rule="evenodd" d="M81.6014 0.844412C81.149 0.130431 80.1367 -0.0795631 78.9951 0.0254341C78.0904 0.109432 77.3796 0.424423 77.2289 0.529421C77.0352 0.655417 76.9704 0.844412 76.9922 0.991408C77.0352 1.3904 77.3583 1.70539 77.0781 3.28035C76.9704 3.91033 73.8472 20.8989 73.8472 20.8989C73.6749 21.8649 73.6749 22.6418 73.998 23.1248C74.4505 23.8388 75.4626 24.0488 76.6044 23.9438C77.5089 23.8598 78.2199 23.5448 78.3705 23.4398C78.5643 23.3138 78.6289 23.1248 78.6076 22.9778C78.5643 22.5788 78.2412 22.2638 78.5212 20.6889C78.672 19.7859 81.7522 3.07035 81.7522 3.07035C81.9245 2.12538 81.9029 1.3484 81.6014 0.844412Z" fill="black"/>
<mask id="mask0" mask-type="alpha" maskUnits="userSpaceOnUse" x="79" y="7" width="22" height="30">
<path fill-rule="evenodd" clip-rule="evenodd" d="M79.7349 7.21729H100.825V36.2383H79.7349V7.21729Z" fill="white"/>
</mask>
<g mask="url(#mask0)">
<path fill-rule="evenodd" clip-rule="evenodd" d="M86.8324 31.4385C86.1096 31.9865 85.2062 31.8444 84.8248 31.479C84.4233 31.0731 84.3432 30.0175 86.0695 29.3679C87.2941 28.9011 88.599 28.353 88.599 28.353C88.318 29.5506 87.5752 30.8904 86.8324 31.4385ZM99.44 18.0004C98.7373 17.5335 98.0347 17.3711 97.854 17.3508C97.6532 17.3305 97.4725 17.4523 97.4123 17.5538C97.2718 17.7771 96.6294 19.7055 94.0597 21.7355C94.2002 20.822 96.0271 10.1852 96.0271 10.1852C96.1879 9.25149 96.1879 8.50042 95.8868 8.03354C95.465 7.34337 94.5214 7.14038 93.4574 7.24187C92.6142 7.32307 91.9517 7.62755 91.8112 7.72905C91.6305 7.85085 91.5705 8.03354 91.5903 8.17563C91.6305 8.52072 91.8716 8.80491 91.7309 9.94166L90.3055 18.1425C89.5629 18.5485 88.7598 18.853 88.1576 18.853C87.1538 18.853 86.6316 18.4267 86.8926 16.8637C87.1134 15.666 88.0771 10.1852 88.0771 10.1852C88.2377 9.25149 88.2377 8.50042 87.9365 8.03354C87.1737 6.79529 84.6443 7.20127 83.8812 7.72905C83.7005 7.85085 83.6405 8.03354 83.6604 8.17563C83.7005 8.54102 83.9615 8.8252 83.7808 10.1041C83.299 12.8038 82.5763 16.9855 82.4157 17.8786C81.8937 20.9032 82.8574 23.1158 85.7884 23.1158C86.4511 23.1158 88.1373 22.6895 89.7032 21.9588L89.3017 24.3743C89.121 24.4352 84.9252 25.9171 83.1585 26.729C80.0269 28.1703 78.5212 32.1692 80.91 34.7878C83.2589 37.3658 87.0534 35.9043 88.318 34.9908C91.1689 32.9609 92.4335 29.6724 93.2365 26.3637C97.1513 24.2932 99.5805 21.9182 99.5805 21.9182C100.283 21.2889 100.725 20.7002 100.805 20.1521C100.946 19.3199 100.343 18.5891 99.44 18.0004Z" fill="black"/>
</g>
<path fill-rule="evenodd" clip-rule="evenodd" d="M73.5712 11.9596C73.8773 10.3339 73.714 9.27724 73.3671 8.566C72.8365 7.44834 71.8571 7.1232 70.6734 7.02159C69.2651 6.94031 67.0202 7.93604 65.8161 8.6676C65.4286 7.73283 64.4692 7.02159 63.0205 7.02159C61.408 7.02159 59.0409 8.13925 58.204 8.68793C57.7346 7.5093 56.7346 7.14352 55.4695 7.02159C53.8369 6.94031 51.7347 7.93604 50.5918 8.64728C50.0816 7.48898 49.1022 7.1232 47.8572 7.02159C46.4286 6.94031 44.7551 7.67187 43.449 8.34247C43.1021 7.34673 41.9184 7.18416 40.8572 7.26544C40.0001 7.34673 39.3266 7.65155 39.1838 7.75315C39.0003 7.87508 38.9389 8.05797 38.9593 8.20022C39.0003 8.54568 39.2246 8.83017 39.1226 9.90719L37.2656 20.4134C37.1022 21.348 37.1022 22.0999 37.4083 22.5673C37.8369 23.2584 38.7962 23.4616 39.8776 23.36C40.735 23.2785 41.4082 22.9737 41.5513 22.8721C41.7348 22.7504 41.796 22.5673 41.7756 22.425C41.7348 22.0796 41.4695 21.5715 41.6123 20.7384L43.1225 12.1222C43.6941 11.7158 44.6327 11.289 45.1227 11.289C46.1021 11.289 46.3674 11.8987 46.1431 13.2195L44.898 20.4134C44.7347 21.348 44.7347 22.0999 45.0409 22.5673C45.4694 23.2584 46.4286 23.4616 47.5102 23.36C48.3674 23.2785 49.0408 22.9737 49.1837 22.8721C49.3673 22.7504 49.4286 22.5673 49.4084 22.425C49.3673 22.0999 49.0816 21.6935 49.2449 20.8199C49.3878 19.9458 50.7551 12.1222 50.7551 12.1222C51.3265 11.7158 52.2655 11.289 52.7551 11.289C53.7142 11.289 54.0002 11.858 53.7961 13.1383C53.3879 15.4549 53.7142 13.6463 52.5306 20.4134C52.3675 21.348 52.3675 22.0999 52.6736 22.5673C53.102 23.2584 54.0612 23.4616 55.1428 23.36C55.9999 23.2785 56.6734 22.9737 56.8162 22.8721C57.0001 22.7504 57.0613 22.5673 57.0407 22.425C57.0001 22.0796 56.7552 21.7951 56.8981 20.6571L58.3879 12.1222C58.7348 11.8783 59.7346 11.289 60.4287 11.289C61.408 11.289 61.6325 11.9596 61.3878 13.2805C61.245 14.0121 60.1427 20.4134 60.1427 20.4134C59.9795 21.348 59.9795 22.0796 60.2856 22.5673C60.6529 23.1568 61.3878 23.3801 62.2654 23.3801C62.4284 23.3801 62.5917 23.3801 62.7756 23.36C63.6327 23.2785 64.3062 22.9737 64.449 22.8721C64.6325 22.7504 64.6937 22.5673 64.6733 22.425C64.6325 22.0391 64.3264 21.7343 64.5917 20.2102C64.6123 20.1491 65.1225 17.2228 65.5306 14.8656L66.0202 12.1019C66.5919 11.6955 67.5304 11.289 67.9998 11.289C68.9794 11.289 69.2449 11.8987 69.0202 13.2195L67.7957 20.4134C67.6325 21.348 67.6325 22.0999 67.9386 22.5673C68.3671 23.2584 69.3263 23.4616 70.4079 23.36C71.2651 23.2785 71.9385 22.9737 72.0814 22.8721C72.2653 22.7504 72.3263 22.5673 72.3061 22.425C72.2653 22.0391 71.9591 21.7343 72.2242 20.2102C72.1426 20.1287 73.5712 11.9596 73.5712 11.9596Z" fill="black"/>
<mask id="mask1" mask-type="alpha" maskUnits="userSpaceOnUse" x="0" y="0" width="30" height="38">
<path fill-rule="evenodd" clip-rule="evenodd" d="M0 0.0541992H29.5V38.0001H0V0.0541992Z" fill="white"/>
</mask>
<g mask="url(#mask1)">
<path fill-rule="evenodd" clip-rule="evenodd" d="M10.462 33.1028C9.66566 33.5597 8.84885 33.6429 8.35877 33.0615C7.82785 32.4386 7.68491 29.1162 12.892 28.0985C12.892 28.0985 12.0548 32.1476 10.462 33.1028ZM29.4731 28.0154C29.4527 27.8077 29.2689 27.6832 29.126 27.6416C28.7992 27.5588 28.4521 27.6211 27.4719 27.1848C26.6756 26.832 23 25.0254 17.9358 24.423L21.6114 3.18043C21.7747 2.22524 21.7747 1.45714 21.4684 0.979335C21.0396 0.252559 20.1003 0.0656736 19.018 0.169499C18.1604 0.252559 17.4865 0.564034 17.3436 0.667859C17.1598 0.771685 17.0986 0.979335 17.119 1.10392C17.1598 1.51923 17.4661 1.8307 17.2211 3.36731C17.1598 3.69955 15.9755 10.4899 14.9545 16.2416C12.259 17.8821 8.70591 18.6504 7.97079 17.6744C7.62365 17.1761 7.70533 16.2624 8.03205 14.8919C8.11373 14.5804 9.68608 8.51725 10.1353 6.77278C10.9725 3.45037 10.3395 0.397914 6.94979 0.0864387C4.0093 -0.204064 1.21175 1.53999 0.374528 2.45365C-0.238073 3.11834 -0.0338728 3.9072 0.517469 4.86239C0.94629 5.61014 1.51805 6.08753 1.66099 6.19136C1.84477 6.29518 2.06939 6.31595 2.15107 6.21212C3.13124 5.09102 4.90778 4.26042 5.52038 4.75857C6.07172 5.2154 5.8471 6.06677 5.6429 6.89737C5.6429 6.89737 3.74384 14.1859 2.96788 17.2176C2.39611 19.4604 2.94746 21.4954 4.56064 22.4713C5.76542 23.2187 7.54197 23.1566 8.93053 22.9695C11.9935 22.5957 13.7701 21.2877 14.056 21.0591C13.7088 22.9695 13.4842 24.2569 13.4842 24.2569C13.4842 24.2569 10.0332 24.5684 7.21525 26.2919C3.51922 28.5555 2.00813 33.6845 4.37686 36.3214C6.74559 38.9795 10.8909 37.9618 12.5857 36.7992C14.2193 35.6777 16.3226 33.352 17.2823 28.0364C22.8774 28.3269 24.3273 31.2755 26.7164 31.3793C28.4929 31.4832 29.6977 29.8014 29.4731 28.0154Z" fill="black"/>
</g>
</svg>
