<svg width="107" height="68" viewBox="0 0 107 68" fill="none" xmlns="http://www.w3.org/2000/svg">
<mask id="mask0" mask-type="alpha" maskUnits="userSpaceOnUse" x="0" y="0" width="37" height="38">
<path fill-rule="evenodd" clip-rule="evenodd" d="M0 0.247314H36.6602V37.5251H0V0.247314Z" fill="white"/>
</mask>
<g mask="url(#mask0)">
<path fill-rule="evenodd" clip-rule="evenodd" d="M22.3561 31.3256C21.0509 32.0539 19.2639 33.0514 17.9169 33.0514C16.8329 33.0506 16.2244 32.4094 16.0032 31.0319C15.6095 28.5943 15.2655 26.1829 14.9798 23.8649C14.8428 22.7566 14.7381 21.7448 14.6593 20.7711C14.5948 19.9731 14.5381 19.1711 14.4814 18.37C14.2468 15.0418 14.0036 11.6004 13.1652 8.29759C12.8503 7.05626 12.4149 6.18068 11.6608 5.27659C11.608 5.21247 11.5742 5.16418 11.5537 5.12855C11.586 5.1238 11.6309 5.12063 11.6915 5.12063C12.1441 5.12063 12.8771 5.30668 13.2707 5.40643C13.3762 5.43255 13.458 5.45393 13.5068 5.46422C15.1726 5.8173 16.5401 6.15138 17.8122 6.51713C19.9677 7.13543 22.1341 8.04188 23.9959 8.84384C27.0481 10.1572 31.2692 12.3842 32.687 16.542C33.886 20.0586 32.2965 23.6741 27.9628 27.2881C26.0813 28.8572 24.4958 30.1381 22.6498 31.1617L22.3561 31.3256ZM34.5228 27.163C37.4726 21.9736 37.3624 15.7622 34.2347 10.9544C31.1936 6.27963 25.5019 4.46672 20.4794 2.86755L19.7591 2.63718C16.9352 1.7323 13.9217 0.81555 10.8554 0.429217C8.66456 0.152133 6.38316 0.191717 4.06633 0.547175C3.81756 0.584383 3.55777 0.60655 3.28224 0.6303C2.4155 0.703925 1.43303 0.787842 0.717434 1.44255C0.171094 1.94368 -0.0871189 2.62372 0.0262428 3.26259C0.104966 3.70751 0.359243 4.09305 0.759158 4.37647C1.53773 4.92826 2.57373 4.99238 3.28539 4.99238C3.71758 4.99238 4.14269 4.96547 4.55363 4.94013C4.82522 4.92351 5.08658 4.90767 5.32905 4.90055C5.3629 4.89976 5.42982 4.89659 5.52429 4.89263C5.9242 4.87522 6.75867 4.8388 7.59392 4.8388C8.86216 4.8388 9.30931 4.9243 9.46203 4.97497C9.42975 5.27501 9.38567 5.55605 9.34316 5.82917C9.2786 6.23926 9.21248 6.66359 9.18807 7.14651C9.14556 8.03555 9.24397 8.90005 9.35733 9.78276C9.40692 10.1659 9.46124 10.5507 9.51556 10.9362C9.62026 11.6804 9.72812 12.4491 9.80212 13.1964C10.1194 16.3955 10.5956 19.6018 11.057 22.7028C11.2483 23.9876 11.4396 25.2741 11.6206 26.5653C11.7308 27.3546 11.9111 28.1375 12.0851 28.8936C12.3276 29.9465 12.5771 31.035 12.6346 32.1276C12.6795 33.0245 12.6692 33.9523 12.2882 34.6633C12.226 34.7804 12.0016 34.9863 11.8025 35.1683C11.3679 35.5673 10.9562 35.9434 10.9877 36.3471C10.9971 36.4675 11.0515 36.6385 11.2538 36.773C11.364 36.8451 11.4852 36.8736 11.5828 36.8965C11.623 36.9045 11.6631 36.9132 11.7009 36.9274C12.7849 37.3241 14.0193 37.5251 15.3702 37.5251C19.7087 37.5251 24.1644 35.4708 25.879 34.5873C28.9721 32.9936 32.417 30.8656 34.5228 27.163Z" fill="#030404"/>
</g>
<mask id="mask1" mask-type="alpha" maskUnits="userSpaceOnUse" x="33" y="16" width="74" height="51">
<path fill-rule="evenodd" clip-rule="evenodd" d="M33.3303 16.0896H106.222V67.0001H33.3303V16.0896Z" fill="white"/>
</mask>
<g mask="url(#mask1)">
<path fill-rule="evenodd" clip-rule="evenodd" d="M79.7809 23.0448C80.0387 24.2232 77.8545 25.8137 76.8388 25.2166C76.8419 25.2174 79.3018 20.8455 79.7809 23.0448ZM105.03 21.838C99.9712 20.5826 100.907 26.7717 99.5622 29.8686C99.334 30.5363 99.0575 31.1867 98.7015 31.8128C97.653 33.3672 95.3793 33.8834 93.837 32.8266C93.2193 32.3895 92.8711 31.805 92.6654 31.1365C92.459 30.468 92.3952 29.7163 92.3484 28.956C92.17 28.2122 92.2253 27.2464 92.2612 26.6022C91.712 24.9576 90.8069 23.9361 89.1734 24.4892C88.0198 24.8808 88.1265 27.2181 87.8858 28.1432C87.501 29.6277 86.6255 31.0753 85.341 31.9337C83.6273 33.0776 80.6704 32.2146 79.0915 31.1969C78.142 30.5849 76.6783 29.1569 76.5856 27.9439C77.1854 27.9721 77.9558 27.8011 78.4956 27.5226C79.2816 27.1067 80.2381 26.5936 80.8776 25.969C82.649 24.228 82.4098 21.7596 81.4502 19.6921C78.4388 15.8067 76.5358 21.1884 74.1896 22.9914C72.8576 23.8866 71.369 21.8639 71.7421 20.9161C72.134 19.6458 73.1645 18.414 72.916 17.1076C72.7548 15.9581 71.6121 15.9652 70.7513 16.2476C69.1646 16.767 68.2197 19.481 67.4221 20.8078C66.2654 22.7238 65.1078 24.6462 64.1404 26.6665C64.0259 26.9019 62.6658 29.0737 62.5903 28.9411C62.0777 28.0412 61.2318 27.3444 60.6328 26.4971C60.005 25.6081 59.4652 24.6556 58.7555 23.8262C57.5879 22.4602 56.6555 20.5293 55.2472 19.4151C54.3864 18.7341 52.5372 18.1197 51.7185 19.2111C50.8477 20.3708 50.7511 21.0652 50.9458 22.5175C51.0541 23.3437 51.6282 23.7619 51.967 24.4892C52.4842 25.6002 53.4984 26.428 53.9572 27.6065C54.2968 28.4704 54.3233 29.3507 54.2454 30.2632C54.1605 31.2542 54.011 32.4531 53.3465 33.24C50.9996 36.0199 49.5133 30.0208 49.6029 28.4045C49.6317 27.867 50.0438 26.96 49.5881 26.5269C48.5949 25.5861 47.8604 27.1765 47.5293 27.798C47.1928 28.4319 46.7005 28.9882 46.255 29.5461C46.0789 29.7642 45.8819 29.9682 45.6801 30.1659C45.4768 30.3636 45.2681 30.5551 45.0686 30.7552C43.7795 31.9972 42.4148 32.526 40.6699 32.0192C39.5007 31.6794 38.6805 30.6995 38.922 29.4009C39.3309 27.1891 42.3135 25.2456 44.3271 24.8313C45.0694 24.6783 46.047 24.7638 46.6195 24.1722C47.062 23.7148 46.8992 23.1436 46.5042 22.6925C45.6162 21.674 44.225 22.071 43.1298 22.4649C41.7698 22.9577 40.3911 23.299 39.112 24.0028C38.3082 24.4453 37.0572 25.2472 36.4769 25.9635C35.3661 27.3319 34.5248 28.5261 33.9149 30.2075C33.4172 31.579 32.896 33.55 33.9149 34.8187C34.6019 35.8599 35.9978 36.2781 35.9978 36.2781C40.3669 37.2918 43.9431 36.4499 46.5611 33.0729C46.7683 33.0847 47.0643 33.0133 47.238 33.1294C48.3511 33.8615 48.6074 34.6626 49.3046 35.7265C50.4512 37.477 53.1884 38.5998 54.6964 36.6453C55.7659 35.2612 55.8142 33.0996 56.2341 31.4519C56.3681 31.4598 56.4678 31.4417 56.4826 31.47C57.0925 32.6853 58.5919 37.047 60.3422 36.6876C64.6117 35.8081 65.7193 30.2797 67.6706 27.0698C68.0406 26.4594 68.4729 24.4578 69.4824 24.6603C70.1087 24.7866 70.6913 26.4374 70.9912 26.9239C71.1899 27.2487 71.3729 27.583 71.542 27.9235C71.7094 28.264 71.8644 28.6124 72.007 28.9662C72.6029 30.4562 73.1287 31.9823 74.0361 33.3193C75.4515 35.4024 77.7276 36.61 80.1867 36.9364C82.3498 37.2228 85.1611 36.6225 86.7953 35.0431C87.1123 34.7496 87.4364 34.4617 87.8126 34.2287C88.597 33.7391 89.5403 32.6194 90.2998 33.2997C91.0421 33.965 91.3451 35.0345 92.0586 35.7383C92.9552 36.6233 94.1244 37.2557 95.5211 37.3342C95.9542 37.3593 96.6373 37.1827 97.1109 37.0792C97.5845 36.978 97.9825 37.0682 98.1181 37.823C98.1983 38.209 98.2419 38.5998 98.2544 38.9834C97.7691 42.7394 97.5526 46.6013 96.2868 50.3525C96.1512 50.7425 96.0048 51.1293 95.8529 51.5106C94.7803 54.1767 93.2746 56.6161 91.226 58.5816C90.9876 58.8138 90.7446 59.0421 90.4976 59.2689C90.2491 59.4948 89.9999 59.7153 89.746 59.9327C89.3962 60.2277 89.0433 60.5109 88.6842 60.78C86.7268 62.4544 82.8367 63.2029 82.4277 64.7934C81.9284 67.9938 87.4138 67.3386 89.6385 65.2037C90.0762 64.9346 90.5078 64.656 90.9214 64.3744C91.3334 64.095 91.7253 63.8102 92.0906 63.5333C92.4544 63.2555 92.7901 62.9864 93.0908 62.7384C96.4574 60.4238 98.2544 56.9747 100.017 53.4274C100.308 52.7644 100.569 52.0928 100.802 51.4141C101.27 50.052 101.626 48.6507 101.89 47.2109C101.999 46.7566 102.106 46.3094 102.212 45.8645C102.84 43.189 103.364 40.5613 103.583 37.932C103.671 37.1568 103.788 36.3973 103.926 35.6449C104.474 32.6437 105.34 29.7995 105.973 26.7317C106.005 26.4641 106.032 26.1997 106.054 25.9314C106.128 25.1303 106.174 24.326 106.219 23.521C106.255 22.8776 105.989 21.8929 105.03 21.838Z" fill="#030404"/>
</g>
<path fill-rule="evenodd" clip-rule="evenodd" d="M21.6027 49.0917L22.4805 46.8376L23.3583 49.0917H21.6027ZM21.83 45L19 52H20.48L21.0846 50.4427H23.8764L24.4809 52H26L23.1692 45H21.83Z" fill="#030404"/>
<path fill-rule="evenodd" clip-rule="evenodd" d="M37.8303 49.7116L36.205 45H34.8378L33.2109 49.7116L31.7101 45.0177H30L32.4748 52H33.8647L35.4992 47.4627L37.1378 52H38.5252L41 45.0177H39.3336L37.8303 49.7116Z" fill="#030404"/>
<path fill-rule="evenodd" clip-rule="evenodd" d="M45.6038 49.0917L46.4816 46.8376L47.3587 49.0917H45.6038ZM45.8311 45L43 52H44.481L45.0856 50.4427H47.8777L48.4808 52H50L47.1697 45H45.8311Z" fill="#030404"/>
<path fill-rule="evenodd" clip-rule="evenodd" d="M60.2454 47.4096C60.2454 48.0019 59.819 48.4002 59.074 48.4002H57.5261V46.3906H59.0442C59.7876 46.3906 60.2454 46.7289 60.2454 47.3917V47.4096ZM61.7924 47.3301V47.3122C61.7924 46.651 61.5833 46.1001 61.1971 45.7107C60.7401 45.2515 60.0555 45 59.173 45H56V52H57.5261V49.76H58.708H58.7273L60.214 52H62L60.3041 49.5003C61.1866 49.1701 61.7924 48.4611 61.7924 47.3301Z" fill="#030404"/>
<path fill-rule="evenodd" clip-rule="evenodd" d="M72.2529 48.5203C72.2529 49.76 71.3291 50.6118 69.9606 50.6118H68.6714V46.3906H69.9606C71.3291 46.3906 72.2529 47.2603 72.2529 48.5008V48.5203ZM69.9606 45H67V52H69.9606C72.3506 52 74 50.4707 74 48.5008V48.4797C74 46.5099 72.3506 45 69.9606 45Z" fill="#030404"/>
<path fill-rule="evenodd" clip-rule="evenodd" d="M84 49.8905V49.8715C84 48.6858 83.1338 48.1888 81.5947 47.8298C80.2849 47.5285 79.9599 47.3825 79.9599 46.9352V46.9155C79.9599 46.5857 80.2963 46.323 80.935 46.323C81.5728 46.323 82.2325 46.5739 82.9045 46.9936L83.7716 45.8639C83.002 45.3108 82.0603 45 80.957 45C79.4082 45 78.3031 45.8157 78.3031 47.0504V47.0701C78.3031 48.4239 79.2887 48.801 80.8155 49.1512C82.0814 49.4439 82.3432 49.6396 82.3432 50.0159V50.038C82.3432 50.4348 81.9321 50.6778 81.2486 50.6778C80.3833 50.6778 79.6665 50.3583 78.9857 49.8518L78 50.9113C78.9101 51.6418 80.0671 52 81.2179 52C82.851 52 84 51.2426 84 49.8905Z" fill="#030404"/>
</svg>
