<?xml version="1.0" encoding="utf-8"?>
<svg version="1.1" id="Layer_1" xmlns="http://www.w3.org/2000/svg" xmlns:xlink="http://www.w3.org/1999/xlink" x="0px" y="0px"
	 viewBox="0 0 100 21" style="enable-background:new 0 0 100 21;" xml:space="preserve">
<path style="fill:#FFFFFF" d="M28,0.2V21h5.5V10.8L44.1,21H46V0.3h-5.5v10.1L29.9,0.2H28z"/>
<path style="fill:#FFFFFF" d="M1.9,21H0l0.1-5.6c3.4-3.1,5.3-5,5.3-5L15.7,0.2h1.9V21h-5.4V10.8L1.9,21z"/>
<path style="fill:#FFFFFF" d="M74.9,0.2h1.9V21h-5.3v-9.2L67,16.4h-0.6l-4.3-4.6V21h-5.3V0.2h1.9l8,9L74.9,0.2z"/>
<path style="fill:#FFFFFF" d="M92.5,16.2h7.4V21H87.2V0.3h5.3V16.2z"/>
</svg>
